<?xml version="1.0" standalone="no"?>
<!DOCTYPE svg PUBLIC "-//W3C//DTD SVG 1.1//EN" "http://www.w3.org/Graphics/SVG/1.1/DTD/svg11.dtd" >
<svg>
<metadata>
Created by FontForge 20110222 at Tue Oct 29 08:05:03 2013
 By Orthosie Webhosting
Copyright 1990-1998 Bitstream Inc.  All rights reserved.
</metadata>
<defs>
<font id="LubalGraphBkBTBook" horiz-adv-x="1157" >
  <font-face 
    font-family="LubalGraphBkBTBook"
    font-weight="400"
    font-stretch="normal"
    units-per-em="2048"
    panose-1="2 6 4 3 2 2 5 2 4 4"
    ascent="1556"
    descent="-492"
    x-height="1100"
    cap-height="1456"
    bbox="-342 -483 2605 1972"
    underline-thickness="113"
    underline-position="-122"
    unicode-range="U+0020-F002"
  />
<missing-glyph horiz-adv-x="1229" 
d="M102 -362v1806h1024v-1806h-1024zM217 -248h795v1577h-795v-1577z" />
    <glyph glyph-name=".notdef" horiz-adv-x="1229" 
d="M102 -362v1806h1024v-1806h-1024zM217 -248h795v1577h-795v-1577z" />
    <glyph glyph-name=".null" horiz-adv-x="0" 
 />
    <glyph glyph-name="nonmarkingreturn" horiz-adv-x="578" 
 />
    <glyph glyph-name="space" unicode=" " horiz-adv-x="578" 
 />
    <glyph glyph-name="exclam" unicode="!" horiz-adv-x="588" 
d="M365 381h-142v1075h142v-1075zM365 0h-142v266h142v-266z" />
    <glyph glyph-name="quotedbl" unicode="&#x22;" horiz-adv-x="569" 
d="M473 1434v-553h-102v553h102zM199 1434v-553h-101v553h101z" />
    <glyph glyph-name="numbersign" unicode="#" horiz-adv-x="1575" 
d="M975 864h-266l-97 -276h267zM918 1454l-168 -483h264l172 483h127l-170 -483h315l-37 -107h-317l-98 -276h340l-37 -109h-340l-170 -479h-129l172 479h-269l-172 -479h-127l170 479h-327l39 109h325l101 276h-353l35 107h354l173 483h127z" />
    <glyph glyph-name="dollar" unicode="$" 
d="M150 403h126q16 -134 93.5 -204t210.5 -70q132 0 209 72.5t77 195.5q0 194 -310 297q-21 7 -31 10q-190 63 -262.5 144t-72.5 219q0 146 90 252.5t230 124.5v213h143l1 -213q65 -3 114.5 -27.5t87.5 -73.5v84h125v-348h-125q-23 126 -89.5 186t-180.5 60q-116 0 -184 -68
t-68 -182q0 -160 284 -257q57 -20 89 -32q164 -60 233.5 -144.5t69.5 -221.5q0 -172 -98.5 -287t-258.5 -129v-246h-143v246q-80 6 -136.5 34t-99.5 81v-90h-124v374z" />
    <glyph glyph-name="percent" unicode="%" horiz-adv-x="1796" 
d="M90 1126q0 150 104.5 254.5t254.5 104.5q149 0 254.5 -105t105.5 -254q0 -150 -105 -254t-255 -104q-151 0 -255 104t-104 254zM219 1126q0 -94 66.5 -160.5t160.5 -66.5t160 66t66 161t-65.5 160.5t-160.5 65.5t-161 -66t-66 -160zM1229 1485h117l-779 -1514h-116z
M1114 330q0 -95 66.5 -161.5t160.5 -66.5q95 0 161.5 66.5t66.5 161.5q0 93 -66.5 159t-161.5 66t-161 -65.5t-66 -159.5zM987 330q0 149 104.5 253.5t254.5 104.5q149 0 253.5 -104.5t104.5 -253.5q0 -151 -104 -255t-254 -104q-151 0 -255 104t-104 255z" />
    <glyph glyph-name="ampersand" unicode="&#x26;" horiz-adv-x="1409" 
d="M555 885q113 44 169 110t56 154q0 85 -56.5 144t-135.5 59q-89 0 -145 -58t-56 -153q0 -68 36.5 -125t131.5 -131zM889 371l-387 362q-110 -56 -165.5 -137t-55.5 -184q0 -130 79 -211.5t201 -81.5q97 0 176.5 61t151.5 191zM993 276q-69 -147 -183 -226t-257 -79
q-176 0 -300 127.5t-124 311.5q0 131 74 243t203 172q-96 86 -132 156t-36 162q0 142 102.5 242t253.5 100q136 0 236 -102.5t100 -239.5q0 -111 -72 -202.5t-207 -149.5l295 -273l172 449h268v-136h-163l-168 -417l325 -303l-90 -111z" />
    <glyph glyph-name="quotesingle" unicode="'" horiz-adv-x="295" 
d="M199 1434v-553h-101v553h101z" />
    <glyph glyph-name="parenleft" unicode="(" horiz-adv-x="713" 
d="M678 1356q-215 -118 -334 -330.5t-119 -480.5q0 -264 120 -479t333 -330v-131q-278 143 -425 385.5t-147 556.5q0 312 148 555t424 385v-131z" />
    <glyph glyph-name="parenright" unicode=")" horiz-adv-x="713" 
d="M35 1356v131q276 -140 424.5 -384t148.5 -556q0 -315 -148 -558.5t-425 -383.5v131q213 114 333.5 329t120.5 480q0 268 -119.5 481.5t-334.5 329.5z" />
    <glyph glyph-name="asterisk" unicode="*" 
d="M504 1116l-273 -14v112l273 -14l-148 230l99 57l123 -244l124 244l99 -57l-150 -230l275 14v-112l-275 14l150 -231l-99 -56l-124 244l-123 -244l-99 56z" />
    <glyph glyph-name="plus" unicode="+" horiz-adv-x="1706" 
d="M903 1221v-562h549v-98h-549v-561h-98v561h-551v98h551v562h98z" />
    <glyph glyph-name="comma" unicode="," horiz-adv-x="578" 
d="M248 -162h-144l156 428h143z" />
    <glyph glyph-name="hyphen" unicode="-" horiz-adv-x="659" 
d="M563 616v-133h-469v133h469z" />
    <glyph glyph-name="period" unicode="." horiz-adv-x="578" 
d="M360 0h-143v266h143v-266z" />
    <glyph glyph-name="slash" unicode="/" horiz-adv-x="569" 
d="M457 1485h123l-512 -1675h-121z" />
    <glyph glyph-name="zero" unicode="0" 
d="M227 481q0 -181 93 -282t258 -101q164 0 258 100t94 279v500q0 178 -94.5 278.5t-257.5 100.5q-165 0 -258 -101t-93 -282v-492zM86 512v432q0 141 20 212t66 132q73 96 177 146.5t229 50.5q130 0 236.5 -54t178.5 -157q41 -58 59.5 -133t18.5 -191v-444
q0 -118 -19 -195.5t-61 -136.5q-70 -96 -178 -149.5t-235 -53.5q-125 0 -229 50.5t-179 146.5q-44 56 -64 136.5t-20 207.5z" />
    <glyph glyph-name="one" unicode="1" 
d="M657 127h158v-127h-453v127h144v1204h-254v125h405v-1329z" />
    <glyph glyph-name="two" unicode="2" 
d="M1008 0h-904v141l517 490q153 145 202 229t49 174q0 137 -89.5 229.5t-227.5 92.5q-142 0 -226.5 -94.5t-84.5 -251.5q0 -8 1 -21t1 -20h-142v22q0 219 127 355.5t326 136.5q196 0 325.5 -129.5t129.5 -327.5q0 -113 -55 -218t-173 -214l-491 -453h586v205h129v-346z" />
    <glyph glyph-name="three" unicode="3" 
d="M258 442v-8q0 -149 88 -243.5t225 -94.5q142 0 235 94.5t93 241.5q0 167 -98 253.5t-287 86.5q-27 0 -41.5 -0.5t-25.5 -1.5v121q11 -1 24.5 -1.5t38.5 -0.5q144 0 216.5 59.5t72.5 177.5q0 102 -62 168t-155 66q-109 0 -170.5 -65t-63.5 -181l-133 1q9 169 109.5 269.5
t263.5 100.5q149 0 252.5 -106t103.5 -253q0 -88 -33 -152.5t-106 -117.5q118 -63 177.5 -165.5t59.5 -241.5q0 -208 -130 -343t-332 -135q-214 0 -338 126t-127 345h143z" />
    <glyph glyph-name="four" unicode="4" 
d="M920 127h151v-127h-459v127h158v174h-684v125l659 1030h175v-1030h151v-125h-151v-174zM768 426l12 872l-544 -872h532z" />
    <glyph glyph-name="five" unicode="5" 
d="M84 442h143q8 -142 111.5 -241t241.5 -99q147 0 247.5 110.5t100.5 272.5q0 163 -100.5 263t-264.5 100q-96 0 -171 -41t-132 -123l-110 51l131 721h657v-143h-537l-73 -406q63 45 124.5 65.5t133.5 20.5q214 0 350.5 -144.5t136.5 -367.5q0 -212 -145.5 -361
t-352.5 -149q-197 0 -336 132.5t-155 338.5z" />
    <glyph glyph-name="six" unicode="6" 
d="M621 1456h178l-340 -526q47 11 86 16.5t71 5.5q198 0 327.5 -138t129.5 -347q0 -214 -141 -355t-357 -141q-212 0 -351.5 138.5t-139.5 341.5q0 174 180 452q18 27 27 41zM586 825q-150 0 -251.5 -104t-101.5 -256q0 -154 104 -260.5t251 -106.5q143 0 239.5 103
t96.5 262q0 158 -95.5 260t-242.5 102z" />
    <glyph glyph-name="seven" unicode="7" 
d="M426 0h-160l576 1313h-512v-223h-125v366h803v-131z" />
    <glyph glyph-name="eight" unicode="8" 
d="M244 424q0 -142 94 -235t240 -93q145 0 240 93.5t95 234.5q0 146 -92 235t-243 89q-152 0 -243 -88.5t-91 -235.5zM313 1118q0 -114 69.5 -176.5t195.5 -62.5t196 62.5t70 176.5q0 105 -74.5 171.5t-191.5 66.5q-118 0 -191.5 -66.5t-73.5 -171.5zM377 815
q-101 50 -152 124.5t-51 172.5q0 165 112.5 269t291.5 104t292 -104t113 -269q0 -98 -51 -172.5t-152 -124.5q129 -42 205 -147t76 -238q0 -203 -134.5 -331t-348.5 -128q-215 0 -348.5 128t-133.5 331q0 132 76.5 237.5t204.5 147.5z" />
    <glyph glyph-name="nine" unicode="9" 
d="M537 0h-179l340 528q-47 -11 -86 -16.5t-71 -5.5q-198 0 -327.5 138t-129.5 347q0 215 140 355.5t356 140.5q212 0 352.5 -138.5t140.5 -340.5q0 -175 -180 -452q-17 -27 -26 -41zM571 633q150 0 251.5 104t101.5 256q0 154 -103.5 259.5t-251.5 105.5
q-143 0 -239.5 -102t-96.5 -261q0 -158 95.5 -260t242.5 -102z" />
    <glyph glyph-name="colon" unicode=":" horiz-adv-x="588" 
d="M365 834h-142v266h142v-266zM365 0h-142v266h142v-266z" />
    <glyph glyph-name="semicolon" unicode=";" horiz-adv-x="588" 
d="M248 -162h-144l156 428h143zM365 1100v-266h-142v266h142z" />
    <glyph glyph-name="less" unicode="&#x3c;" horiz-adv-x="1706" 
d="M1442 1026l-1022 -416l1022 -413v-109l-1178 481v82l1178 484v-109z" />
    <glyph glyph-name="equal" unicode="=" horiz-adv-x="1706" 
d="M1452 473v-98h-1198v98h1198zM1452 846v-98h-1198v98h1198z" />
    <glyph glyph-name="greater" unicode="&#x3e;" horiz-adv-x="1706" 
d="M1442 651v-82l-1178 -481v109l1022 413l-1022 416v109z" />
    <glyph glyph-name="question" unicode="?" horiz-adv-x="948" 
d="M547 398l-144 -1q0 94 39 183t115 172q18 19 54 53q126 119 126 252q0 131 -70.5 205.5t-193.5 74.5q-129 0 -201.5 -84t-78.5 -241h-148q3 214 122.5 343.5t313.5 129.5q181 0 294.5 -120t113.5 -310q0 -187 -166 -335q-16 -14 -25 -22q-82 -76 -116 -144.5t-35 -155.5z
M403 0v266h144v-266h-144z" />
    <glyph glyph-name="at" unicode="@" horiz-adv-x="2048" 
d="M1298 836l60 125h94l-139 -562q-10 -44 -13.5 -62.5t-3.5 -29.5q0 -43 28.5 -67.5t78.5 -24.5q52 0 106.5 21t104.5 61q97 77 151 204.5t54 282.5q0 254 -198 417t-509 163q-175 0 -320 -49.5t-262 -149.5q-147 -126 -222 -290.5t-75 -362.5q0 -174 60 -305t184 -232
q102 -82 244 -128t301 -46q171 0 334.5 49.5t300.5 143.5l39 -55q-147 -111 -311 -166.5t-343 -55.5q-191 0 -347 46.5t-275 138.5q-155 118 -229 273.5t-74 361.5q0 204 86 381.5t252 314.5q132 109 298.5 165t360.5 56q162 0 308 -44t249 -124q129 -99 194.5 -228
t65.5 -280q0 -171 -62 -309.5t-181 -232.5q-70 -54 -149 -82.5t-161 -28.5q-97 0 -144.5 37.5t-47.5 113.5q0 4 1 14t1 15q-51 -87 -127 -133.5t-168 -46.5q-153 0 -233 83.5t-80 244.5q0 230 135 388t329 158q94 0 158 -41t96 -122zM1210 469l62 248q-18 93 -75.5 145.5
t-139.5 52.5q-154 0 -254.5 -133.5t-100.5 -337.5q0 -111 55 -173t152 -62q107 0 189.5 71.5t111.5 188.5z" />
    <glyph glyph-name="A" unicode="A" horiz-adv-x="1403" 
d="M961 600l-263 690l-260 -690h523zM260 133h150v-133h-471v133h163l465 1194h-164v129h385l510 -1323h164v-133h-469v133h148l-123 324h-635z" />
    <glyph glyph-name="B" unicode="B" horiz-adv-x="1229" 
d="M399 139h203q177 0 261.5 67t84.5 206q0 138 -86.5 207t-261.5 69h-201v-549zM399 827h88q211 0 295 58.5t84 191.5q0 119 -81.5 179.5t-241.5 60.5h-144v-490zM96 0v133h164v1194h-164v129h475q204 0 323.5 -106t119.5 -283q0 -102 -37 -173t-109 -110
q103 -33 163.5 -124.5t60.5 -213.5q0 -115 -44 -210.5t-124 -153.5q-60 -44 -132.5 -63t-205.5 -19h-490z" />
    <glyph glyph-name="C" unicode="C" horiz-adv-x="1522" 
d="M1276 1331v125h129v-366h-98q-108 132 -227 192.5t-269 60.5q-244 0 -417 -180t-173 -428q0 -263 173 -444.5t417 -181.5q151 0 272 63t211 188h176q-126 -202 -284.5 -295.5t-374.5 -93.5q-313 0 -526 220.5t-213 545.5q0 153 58 290t169 247q105 104 234.5 157.5
t279.5 53.5q129 0 240 -37t223 -117z" />
    <glyph glyph-name="D" unicode="D" horiz-adv-x="1518" 
d="M414 137h336q244 0 390 162.5t146 435.5q0 265 -154.5 426.5t-410.5 161.5h-307v-1186zM270 133v1194h-164v129h568q178 0 295 -35.5t213 -115.5q125 -107 191.5 -255t66.5 -319q0 -192 -75 -345.5t-220 -260.5q-92 -68 -194.5 -96.5t-301.5 -28.5h-543v133h164z" />
    <glyph glyph-name="E" unicode="E" horiz-adv-x="1190" 
d="M965 365h133v-365h-1002v133h164v1194h-164v129h1002v-366h-133v223h-564v-510h570v-144h-570v-518h564v224z" />
    <glyph glyph-name="F" unicode="F" horiz-adv-x="1163" 
d="M403 133h164v-133h-471v133h164v1194h-164v129h1002v-366h-133v223h-564v-510h570v-144h-568v-526z" />
    <glyph glyph-name="G" unicode="G" horiz-adv-x="1626" 
d="M1395 238q-120 -136 -262 -201.5t-314 -65.5q-317 0 -530 220t-213 546q0 153 58 290t169 247q108 107 239 159t296 52q125 0 229.5 -36t212.5 -116v123h127v-366h-98q-104 131 -221.5 193.5t-262.5 62.5q-251 0 -425.5 -180t-174.5 -431q0 -268 173 -447t427 -179
q200 0 359 128t207 332h-736v129h869v-698h-129v238z" />
    <glyph glyph-name="H" unicode="H" horiz-adv-x="1501" 
d="M260 133v1194h-164v129h471v-129h-164v-514h697v514h-166v129h471v-129h-164v-1194h164v-133h-471v133h166v549h-697v-549h164v-133h-471v133h164z" />
    <glyph glyph-name="I" unicode="I" horiz-adv-x="664" 
d="M260 133v1194h-164v129h471v-129h-164v-1194h164v-133h-471v133h164z" />
    <glyph glyph-name="J" unicode="J" horiz-adv-x="1071" 
d="M811 506v-31q0 -255 -98 -380.5t-297 -125.5q-162 0 -262.5 105t-100.5 276v4h144q6 -108 68.5 -174.5t156.5 -66.5q134 0 190 85.5t56 336.5v792h-164v129h469v-129h-162v-821z" />
    <glyph glyph-name="K" unicode="K" horiz-adv-x="1257" 
d="M1133 133h163v-133h-469v133h129l-553 606v-606h164v-133h-471v133h166v1194h-166v129h471v-129h-164v-565l568 565h-135v129h469v-129h-164l-578 -571z" />
    <glyph glyph-name="L" unicode="L" horiz-adv-x="1190" 
d="M96 0v133h164v1194h-164v129h471v-129h-164v-1194h564v232h133v-365h-1004z" />
    <glyph glyph-name="M" unicode="M" horiz-adv-x="1960" 
d="M1044 0h-133l-522 1325v-1192h178v-133h-471v133h164v1194h-164v129h389l492 -1268l498 1268h385v-129h-164v-1194h164v-133h-469v133h172v1190z" />
    <glyph glyph-name="N" unicode="N" horiz-adv-x="1608" 
d="M1217 219v1108h-164v129h469v-129h-164v-1327h-172l-783 1237v-1104h164v-133h-471v133h164v1194h-164v129h338z" />
    <glyph glyph-name="O" unicode="O" horiz-adv-x="1638" 
d="M223 735q0 -266 174 -445t428 -179q249 0 419.5 181t170.5 447q0 248 -176 427.5t-424 179.5q-101 0 -194.5 -34.5t-171.5 -101.5q-105 -88 -165.5 -215.5t-60.5 -259.5zM76 737q0 152 58 290t169 247q107 105 236 158t278 53q153 0 283.5 -53.5t238.5 -159.5
q111 -109 167.5 -244t56.5 -291q0 -155 -48 -284.5t-145 -235.5q-111 -122 -251 -184t-304 -62q-313 0 -526 220.5t-213 545.5z" />
    <glyph glyph-name="P" unicode="P" horiz-adv-x="1190" 
d="M403 758h213q171 0 256.5 70.5t85.5 209.5q0 142 -84.5 208.5t-269.5 66.5h-201v-555zM403 612v-479h164v-133h-471v133h164v1194h-164v129h500q125 0 194.5 -12.5t118.5 -40.5q94 -56 149.5 -153t55.5 -208q0 -197 -138.5 -313.5t-379.5 -116.5h-193z" />
    <glyph glyph-name="Q" unicode="Q" horiz-adv-x="1640" 
d="M1214 88q-89 -58 -188.5 -87.5t-208.5 -29.5q-312 0 -526.5 220.5t-214.5 545.5q0 152 58 290t169 247q107 105 236 158t278 53q318 0 533 -219t215 -541q0 -163 -60 -302t-178 -249q41 -30 81 -43.5t85 -13.5q18 0 27.5 0.5t17.5 1.5v162h121v-287h-125
q-116 0 -184.5 22t-135.5 72zM250 555q79 37 154 54.5t157 17.5q174 0 323 -81t333 -282q97 97 147.5 218.5t50.5 256.5q0 248 -176 427.5t-424 179.5q-240 0 -415 -181t-175 -422q0 -47 6 -93.5t19 -94.5zM299 426q82 -150 223 -235t303 -85q67 0 134.5 18t140.5 54
q-162 177 -284 244t-269 67q-59 0 -119.5 -15.5t-128.5 -47.5z" />
    <glyph glyph-name="R" unicode="R" horiz-adv-x="1313" 
d="M403 1313v-1180h164v-133h-471v133h164v1194h-164v129h557q130 0 208.5 -19.5t142.5 -64.5q87 -61 137.5 -163t50.5 -216q0 -169 -101 -291t-251 -133l272 -436h164v-133h-254l-432 702h137q138 0 224.5 81t86.5 208q0 156 -94 239t-272 83h-269z" />
    <glyph glyph-name="S" unicode="S" horiz-adv-x="1075" 
d="M899 1456v-373h-115q-37 138 -105 205.5t-169 67.5q-110 0 -182 -75.5t-72 -193.5q0 -50 15.5 -93t45.5 -74q56 -59 230 -99q55 -13 81 -20q167 -46 255 -147.5t88 -247.5q0 -191 -118 -314t-296 -123q-103 0 -184 32.5t-127 92.5v-94h-123v403h123q7 -147 85 -227
t214 -80q132 0 212.5 83t80.5 220q0 96 -59.5 165t-172.5 104q-32 10 -99 26q-179 44 -257 105q-67 52 -99 119.5t-32 154.5q0 181 110.5 295.5t284.5 114.5q78 0 142.5 -29t127.5 -92v94h115z" />
    <glyph glyph-name="T" unicode="T" horiz-adv-x="1217" 
d="M371 0v133h164v1180h-306v-223h-133v366h1022v-366h-133v223h-309v-1180h164v-133h-469z" />
    <glyph glyph-name="U" unicode="U" horiz-adv-x="1442" 
d="M256 1327h-166v129h471v-129h-164v-764q0 -120 9 -178.5t30 -103.5q39 -83 115 -131t170 -48q73 0 137 30.5t109 86.5q41 52 59 116.5t18 192.5v35v764h-163v129h469v-129h-164v-795q0 -283 -112.5 -422t-342.5 -139q-244 0 -359.5 136t-115.5 425v795z" />
    <glyph glyph-name="V" unicode="V" horiz-adv-x="1331" 
d="M109 1327h-148v129h434v-129h-127l398 -1096l397 1096h-127v129h438v-129h-151l-492 -1327h-127z" />
    <glyph glyph-name="W" unicode="W" horiz-adv-x="1937" 
d="M682 0h-150l-401 1327h-149v129h436v-129h-127l313 -1085l283 1212h162l284 -1212l314 1085h-125v129h436v-129h-150l-403 -1327h-148l-290 1217z" />
    <glyph glyph-name="X" unicode="X" horiz-adv-x="1354" 
d="M350 129h113v-129h-436v129h149l418 604l-406 594h-149v129h436v-129h-113l316 -475l315 473h-112v129h436v-129h-150l-407 -592l418 -604h147v-129h-436v129h115l-326 489z" />
    <glyph glyph-name="Y" unicode="Y" horiz-adv-x="1118" 
d="M870 1327h-125v129h435v-129h-148l-401 -792v-402h162v-133h-469v133h163v404l-399 790h-149v129h436v-129h-125l311 -627z" />
    <glyph glyph-name="Z" unicode="Z" horiz-adv-x="1034" 
d="M780 1313h-557v-221h-131v364h850v-137l-694 -1178h577v224h131v-365h-880v137z" />
    <glyph glyph-name="bracketleft" unicode="[" horiz-adv-x="713" 
d="M492 1485v-162q-93 -66 -133 -169t-40 -304v-657q0 -202 40 -305t133 -169v-161q-154 74 -233 228.5t-79 381.5v706q0 227 79 381.5t233 229.5z" />
    <glyph glyph-name="backslash" unicode="\" horiz-adv-x="569" 
d="M127 1485l512 -1675h-123l-510 1675h121z" />
    <glyph glyph-name="bracketright" unicode="]" horiz-adv-x="713" 
d="M223 1485q153 -76 231 -230.5t78 -380.5v-706q0 -226 -78 -380.5t-231 -229.5v161q92 67 131 169t39 305v657q0 202 -39 304.5t-131 168.5v162z" />
    <glyph glyph-name="asciicircum" unicode="^" horiz-adv-x="2048" 
d="M1094 1458l530 -557h-143l-457 455l-459 -455h-143l532 557h140z" />
    <glyph glyph-name="underscore" unicode="_" horiz-adv-x="1024" 
d="M1024 -383v-100h-1024v100h1024z" />
    <glyph glyph-name="grave" unicode="`" horiz-adv-x="1024" 
d="M545 1247l-269 350h152l209 -350h-92z" />
    <glyph glyph-name="a" unicode="a" horiz-adv-x="1442" 
d="M1057 543q0 188 -125 321t-293 133q-173 0 -297.5 -126.5t-124.5 -309.5q0 -193 124.5 -324t301.5 -131q163 0 288.5 131t125.5 306zM1196 127h162v-127h-305v158q-94 -94 -192.5 -138.5t-213.5 -44.5q-247 0 -411 166.5t-164 413.5q0 242 160.5 407.5t402.5 165.5
q124 0 229.5 -45.5t192.5 -136.5v154h301v-127h-162v-846z" />
    <glyph glyph-name="b" unicode="b" horiz-adv-x="1432" 
d="M377 543q0 -175 124.5 -306t286.5 -131q177 0 301.5 131t124.5 324q0 183 -124 309.5t-297 126.5q-168 0 -292 -133t-124 -321zM238 127v1202h-164v127h303v-510q87 92 191.5 137t228.5 45q242 0 403.5 -165.5t161.5 -407.5q0 -247 -165 -413.5t-413 -166.5
q-114 0 -212.5 44.5t-192.5 138.5v-158h-305v127h164z" />
    <glyph glyph-name="c" unicode="c" horiz-adv-x="1208" 
d="M1010 764q-66 120 -159.5 176.5t-223.5 56.5q-173 0 -291.5 -128.5t-118.5 -319.5t120.5 -317t301.5 -126q125 0 222 63t147 177h157q-64 -180 -200.5 -277.5t-323.5 -97.5q-240 0 -404.5 169t-164.5 407q0 247 167 415t414 168q99 0 180 -30t156 -94v94h129v-336h-108z
" />
    <glyph glyph-name="d" unicode="d" horiz-adv-x="1432" 
d="M217 561q0 -193 124.5 -324t301.5 -131q163 0 288.5 131t125.5 306q0 188 -125 321t-293 133q-172 0 -297 -127t-125 -309zM1053 158q-94 -94 -192.5 -138.5t-213.5 -44.5q-247 0 -411 166.5t-164 413.5q0 242 160.5 407.5t402.5 165.5q124 0 229.5 -45.5t192.5 -136.5
v383h-164v127h303v-1329h162v-127h-305v158z" />
    <glyph glyph-name="e" unicode="e" horiz-adv-x="1272" 
d="M1053 625q-37 177 -145.5 274.5t-268.5 97.5q-165 0 -281 -103t-137 -269h832zM1204 504h-987q14 -175 131.5 -286.5t288.5 -111.5q124 0 222.5 63t152.5 177h157q-76 -181 -213 -278t-315 -97q-240 0 -404.5 169t-164.5 407q0 242 165 412.5t394 170.5
q248 0 410.5 -170.5t162.5 -437.5v-18z" />
    <glyph glyph-name="f" unicode="f" horiz-adv-x="664" 
d="M246 127v848h-148v125h148v39q0 173 80 259.5t241 86.5h11l-1 -133q-103 -2 -149.5 -52t-46.5 -161q0 -6 1 -19t1 -20h195v-125h-195l2 -848h178v-127h-479v127h162z" />
    <glyph glyph-name="g" unicode="g" horiz-adv-x="1419" 
d="M221 559q0 -193 123 -323t295 -130q164 0 289 130.5t125 306.5q0 188 -123 321t-291 133q-172 0 -295 -126.5t-123 -311.5zM1190 182q0 -272 -144 -423.5t-399 -151.5q-201 0 -327 81.5t-170 239.5h169q28 -96 113.5 -146t220.5 -50q182 0 289 113t107 307v24
q-88 -103 -187.5 -152t-222.5 -49q-241 0 -404 167t-163 413q0 244 160.5 408.5t402.5 164.5q133 0 234.5 -48t181.5 -148v168h303v-125h-164v-793z" />
    <glyph glyph-name="h" unicode="h" horiz-adv-x="1376" 
d="M238 127v1202h-164v127h301v-520q60 96 142 141t196 45q116 0 212 -47t156 -133q41 -58 58.5 -126t17.5 -204v-485h164v-127h-465v127h162v473q0 92 -7 139.5t-22 83.5q-34 81 -105.5 123.5t-172.5 42.5q-170 0 -253 -112.5t-83 -341.5v-408h164v-127h-465v127h164z" />
    <glyph glyph-name="i" unicode="i" horiz-adv-x="612" 
d="M246 1210v246h139v-246h-139zM246 127v848h-162v125h299v-973h166v-127h-465v127h162z" />
    <glyph glyph-name="j" unicode="j" horiz-adv-x="569" 
d="M238 1210v246h139v-246h-139zM238 975h-164v125h301v-1110q0 -209 -76.5 -296t-255.5 -87v130q112 7 153.5 55t41.5 198v985z" />
    <glyph glyph-name="k" unicode="k" horiz-adv-x="1202" 
d="M246 127v1202h-162v127h299v-840l410 359h-146v125h471v-125h-141l-426 -373l487 -475h142v-127h-482v127h156l-471 461v-461h143v-127h-442v127h162z" />
    <glyph glyph-name="l" unicode="l" horiz-adv-x="612" 
d="M246 127v1202h-162v127h299v-1329h166v-127h-465v127h162z" />
    <glyph glyph-name="m" unicode="m" horiz-adv-x="2021" 
d="M246 127v848h-162v125h299v-164q52 94 128.5 140t178.5 46q125 0 223.5 -66t143.5 -179q57 124 142 184.5t202 60.5q103 0 190 -47t142 -133q38 -60 54.5 -128t16.5 -202v-485h164v-127h-465v127h164v451q0 101 -6 153.5t-21 91.5q-28 79 -92.5 121.5t-154.5 42.5
q-150 0 -224.5 -113t-74.5 -339v-408h163v-127h-464v127h165v408q0 267 -64.5 359.5t-219.5 92.5q-144 0 -217.5 -114.5t-73.5 -337.5v-408h166v-127h-465v127h162z" />
    <glyph glyph-name="n" unicode="n" horiz-adv-x="1384" 
d="M246 127v848h-162v125h301v-164q59 96 141 141t197 45q114 0 209.5 -47t157.5 -133q41 -59 59 -130t18 -200v-485h164v-127h-467v127h164v444q0 105 -7 158t-24 94q-34 81 -105 123.5t-171 42.5q-170 0 -254 -113t-84 -341v-408h166v-127h-465v127h162z" />
    <glyph glyph-name="o" unicode="o" horiz-adv-x="1276" 
d="M219 551q0 -191 120 -319t300 -128q177 0 298.5 129t121.5 320q0 195 -122 320.5t-308 125.5q-169 0 -289.5 -129t-120.5 -319zM72 549q0 242 165.5 414t393.5 172q239 0 407 -169t168 -403q0 -246 -164.5 -420t-400.5 -174q-239 0 -404 170.5t-165 409.5z" />
    <glyph glyph-name="p" unicode="p" horiz-adv-x="1432" 
d="M377 557q0 -188 124 -321.5t292 -133.5q173 0 297 126.5t124 310.5q0 193 -124.5 323.5t-301.5 130.5q-162 0 -286.5 -130.5t-124.5 -305.5zM238 -227v1202h-164v125h305v-158q95 95 193 138.5t212 43.5q248 0 413 -166.5t165 -412.5q0 -242 -161.5 -408t-403.5 -166
q-124 0 -228.5 45.5t-191.5 137.5v-381h162v-129h-465v129h164z" />
    <glyph glyph-name="q" unicode="q" horiz-adv-x="1432" 
d="M643 993q-177 0 -301.5 -130.5t-124.5 -323.5q0 -183 125 -310t297 -127q168 0 293 133.5t125 321.5q0 175 -125.5 305.5t-288.5 130.5zM1057 154q-87 -92 -192.5 -137.5t-229.5 -45.5q-242 0 -402.5 165.5t-160.5 408.5q0 247 164 413t411 166q115 0 213.5 -44
t192.5 -138v158h305v-125h-162v-1202h162v-129h-465v129h164v381z" />
    <glyph glyph-name="r" unicode="r" horiz-adv-x="848" 
d="M246 127v848h-162v125h301v-185q52 104 148 152.5t251 50.5v-350h-131v186q-137 -15 -203.5 -132t-66.5 -343v-352h166v-127h-465v127h162z" />
    <glyph glyph-name="s" unicode="s" horiz-adv-x="915" 
d="M72 0v338h133v-12q0 -100 70.5 -161t185.5 -61q102 0 160.5 53t58.5 146q0 133 -239 196q-41 11 -62 17q-149 41 -219 116t-70 193q0 137 91.5 221t242.5 84q67 0 119.5 -24.5t97.5 -77.5v72h125v-275h-127q-22 89 -74.5 132.5t-138.5 43.5q-91 0 -143 -44.5t-52 -122.5
q0 -134 244 -196l57 -15q158 -42 227.5 -117.5t69.5 -200.5q0 -152 -99.5 -243t-268.5 -91q-84 0 -146 28t-112 89v-88h-131z" />
    <glyph glyph-name="t" unicode="t" horiz-adv-x="633" 
d="M227 0v975h-166v125h166v356h138v-356h165v-125h-165v-848h165v-127h-303z" />
    <glyph glyph-name="u" unicode="u" horiz-adv-x="1366" 
d="M1001 164q-58 -95 -141.5 -141t-195.5 -46q-117 0 -213 47t-156 134q-42 59 -60 127.5t-18 201.5v486h-162v127h301v-572q0 -104 7.5 -157t23.5 -95q34 -79 105.5 -121t173.5 -42q169 0 252 111.5t83 340.5v408h-165v127h303v-975h164v-125h-302v164z" />
    <glyph glyph-name="v" unicode="v" horiz-adv-x="1169" 
d="M516 0l-387 975h-149v125h458v-125h-164l308 -776l307 776h-164v125h459v-125h-150l-387 -975h-131z" />
    <glyph glyph-name="w" unicode="w" horiz-adv-x="1759" 
d="M494 0l-355 975h-151v125h461v-125h-164l278 -776l273 759h88l272 -759l279 776h-164v125h461v-125h-152l-354 -975h-140l-247 690l-246 -690h-139z" />
    <glyph glyph-name="x" unicode="x" horiz-adv-x="1090" 
d="M-12 0v127h168l317 428l-307 420h-164v125h471v-125h-135l219 -307l225 307h-145v125h453v-125h-138l-315 -420l309 -428h158v-127h-465v127h137l-223 313l-229 -313h143v-127h-479z" />
    <glyph glyph-name="y" unicode="y" horiz-adv-x="1169" 
d="M510 12l-381 963h-152v125h461v-125h-164l308 -776l307 776h-164v125h459v-125h-150l-477 -1202h143v-129h-460v129h174z" />
    <glyph glyph-name="z" unicode="z" horiz-adv-x="956" 
d="M870 0h-776v133l578 834h-430v-172h-129v305h710v-152l-561 -807h479v170h129v-311z" />
    <glyph glyph-name="braceleft" unicode="{" horiz-adv-x="1024" 
d="M854 1370h-37q-131 0 -177 -49.5t-46 -204.5v-242q0 -168 -43.5 -240t-153.5 -104q110 -31 153.5 -103t43.5 -241v-241q0 -155 45 -204.5t170 -49.5q7 0 22 1t23 1v-107h-47q-197 0 -266.5 72.5t-69.5 296.5v244q0 154 -57 217t-195 63q-7 0 -21.5 -1t-23.5 -1v109
q9 0 23.5 -1t21.5 -1q138 0 195 63t57 217v242q0 223 70 297t266 74h47v-107z" />
    <glyph glyph-name="bar" unicode="|" horiz-adv-x="1024" 
d="M567 1565v-2048h-108v2048h108z" />
    <glyph glyph-name="braceright" unicode="}" horiz-adv-x="1024" 
d="M555 1106v-242q0 -154 57 -217t195 -63q7 0 22 1t23 1v-109q-8 0 -23 1t-22 1q-138 0 -195 -63t-57 -217v-244q0 -223 -69.5 -296t-266.5 -73h-47v107h39q130 0 175.5 49t45.5 203v241q0 171 43 242t154 102q-111 32 -154 103t-43 241v242q0 157 -45 206.5t-170 49.5
q-7 0 -22 -1t-23 -1v107h47q196 0 266 -74t70 -297z" />
    <glyph glyph-name="asciitilde" unicode="~" horiz-adv-x="1706" 
d="M1530 637q-102 -72 -198 -107.5t-189 -35.5q-99 0 -260 57q-20 7 -29 10l-16 6q-176 64 -273 64q-83 0 -175 -38t-212 -122v113q106 73 202 109t185 36q104 0 272 -61q11 -4 18 -7q9 -3 31 -11q167 -60 257 -60q85 0 177 38t210 122v-113z" />
    <glyph glyph-name="euro" 
d="M848 621l-31 -95h-485q24 -199 116.5 -313.5t229.5 -114.5q109 0 186 63.5t119 188.5h141q-58 -190 -169 -284.5t-277 -94.5q-197 0 -329.5 149t-160.5 406h-182l31 95h141q-1 17 -1.5 43.5t-0.5 64.5q0 40 1 64t3 41h-172l31 94h149q29 258 162 407.5t328 149.5
q95 0 165.5 -31t117.5 -94v96h120v-354h-98q-48 132 -120.5 193t-184.5 61q-135 0 -227 -113.5t-119 -314.5h618l-30 -94h-596q-3 -19 -4 -40.5t-1 -64.5q0 -45 1 -67.5t4 -40.5h524z" />
    <glyph glyph-name="euro" unicode="&#x20ac;" 
d="M848 621l-31 -95h-485q24 -199 116.5 -313.5t229.5 -114.5q109 0 186 63.5t119 188.5h141q-58 -190 -169 -284.5t-277 -94.5q-197 0 -329.5 149t-160.5 406h-182l31 95h141q-1 17 -1.5 43.5t-0.5 64.5q0 40 1 64t3 41h-172l31 94h149q29 258 162 407.5t328 149.5
q95 0 165.5 -31t117.5 -94v96h120v-354h-98q-48 132 -120.5 193t-184.5 61q-135 0 -227 -113.5t-119 -314.5h618l-30 -94h-596q-3 -19 -4 -40.5t-1 -64.5q0 -45 1 -67.5t4 -40.5h524z" />
    <glyph glyph-name="nonbreakingspace" unicode="&#xa0;" 
 />
    <glyph glyph-name="exclamdown" unicode="&#xa1;" horiz-adv-x="588" 
d="M223 1075h142v-1075h-142v1075zM223 1456h142v-266h-142v266z" />
    <glyph glyph-name="cent" unicode="&#xa2;" 
d="M528 119v178q-175 21 -278 140t-103 300t102.5 299.5t278.5 143.5v157h148v-157q57 -10 96.5 -28t69.5 -46v74h125v-297h-117q-49 84 -113 124t-151 40q-130 0 -210.5 -87t-80.5 -229q0 -137 83.5 -223t215.5 -86q82 0 148.5 41t115.5 123h152q-39 -117 -128.5 -194.5
t-205.5 -94.5v-178h-148z" />
    <glyph glyph-name="sterling" unicode="&#xa3;" 
d="M854 807v-129h-391q45 -79 65.5 -149t20.5 -150q0 -74 -17 -133.5t-55 -118.5h174q149 0 229.5 72t80.5 204q0 21 -4 50t-13 77h141l1 -5q12 -80 12 -122q0 -103 -38 -188t-108 -137q-57 -43 -134.5 -60.5t-242.5 -17.5h-460v127h221q42 53 62 110t20 128t-19 134
t-88 179h-252v129h150q-23 65 -34 117.5t-11 99.5q0 185 133 323t319 138q112 0 191.5 -33t136.5 -102v102h125v-371h-125q-30 132 -111.5 202.5t-201.5 70.5q-144 0 -237 -92t-93 -230q0 -48 15.5 -103.5t48.5 -121.5h489z" />
    <glyph glyph-name="currency" unicode="&#xa4;" 
d="M848 621l-31 -95h-485q24 -199 116.5 -313.5t229.5 -114.5q109 0 186 63.5t119 188.5h141q-58 -190 -169 -284.5t-277 -94.5q-197 0 -329.5 149t-160.5 406h-182l31 95h141q-1 17 -1.5 43.5t-0.5 64.5q0 40 1 64t3 41h-172l31 94h149q29 258 162 407.5t328 149.5
q95 0 165.5 -31t117.5 -94v96h120v-354h-98q-48 132 -120.5 193t-184.5 61q-135 0 -227 -113.5t-119 -314.5h618l-30 -94h-596q-3 -19 -4 -40.5t-1 -64.5q0 -45 1 -67.5t4 -40.5h524z" />
    <glyph glyph-name="yen" unicode="&#xa5;" horiz-adv-x="1270" 
d="M954 1327h-133v129h434v-129h-147l-170 -332h303v-65h-334l-133 -258h467v-68h-498l-36 -69v-402h163v-133h-471v133h164v404l-35 67h-501v68h471l-133 258h-338v65h303l-166 332h-150v129h437v-129h-125l317 -641z" />
    <glyph glyph-name="brokenbar" unicode="&#xa6;" horiz-adv-x="1024" 
d="M567 408v-758h-108v758h108zM567 1432v-758h-108v758h108z" />
    <glyph glyph-name="section" unicode="&#xa7;" 
d="M272 788q0 -44 28 -91.5t106 -129.5l18 -19q221 -231 313 -231q65 0 104.5 37.5t39.5 98.5q0 46 -28.5 94t-119.5 141q-148 152 -208.5 193t-112.5 41q-59 0 -99.5 -38.5t-40.5 -95.5zM758 213q41 -65 57 -110t16 -89q0 -110 -84 -170.5t-239 -60.5h-227v315h104v-216
q16 -2 32.5 -2.5t47.5 -0.5q117 0 170 31.5t53 99.5q0 47 -36 109.5t-99 122.5l-211 202q-110 107 -151 177t-41 141q0 97 63.5 166t179.5 98q-38 71 -52.5 114.5t-14.5 82.5q0 111 84 172t239 61h228v-315h-105v216q-15 2 -32 2.5t-48 0.5q-117 0 -170 -31.5t-53 -99.5
q0 -47 36 -109.5t99 -122.5l211 -202q110 -107 151.5 -177t41.5 -141q0 -98 -66 -168t-184 -96z" />
    <glyph glyph-name="dieresis" unicode="&#xa8;" horiz-adv-x="1024" 
d="M625 1313v164h141v-164h-141zM256 1313v164h141v-164h-141z" />
    <glyph glyph-name="copyright" unicode="&#xa9;" horiz-adv-x="1706" 
d="M1073 915q-18 80 -75 124t-142 44q-122 0 -190 -95t-68 -267q0 -166 69 -260t189 -94q89 0 151 50.5t78 137.5h115q-11 -125 -108.5 -205t-241.5 -80q-177 0 -279 122t-102 335q0 203 107.5 326t283.5 123q135 0 226.5 -72t103.5 -189h-117zM1505 723q0 132 -48.5 251
t-139.5 210q-94 94 -213 143t-252 49q-132 0 -249 -48t-208 -140q-94 -96 -144 -215.5t-50 -249.5q0 -129 49.5 -247t142.5 -212q94 -93 212 -142.5t247 -49.5q130 0 250.5 50t216.5 144q91 89 138.5 206t47.5 251zM852 1456q149 0 283.5 -55.5t238.5 -159.5
q102 -102 156.5 -235.5t54.5 -282.5q0 -150 -53.5 -281t-157.5 -233q-107 -106 -242 -162.5t-280 -56.5t-278 55.5t-238 161.5q-105 104 -160 237t-55 279q0 145 56.5 279.5t162.5 242.5q101 103 232 157t280 54z" />
    <glyph glyph-name="ordfeminine" unicode="&#xaa;" horiz-adv-x="1081" 
d="M793 1067q0 131 -94 224t-220 93q-130 0 -222.5 -88t-92.5 -217q0 -136 93 -227.5t226 -91.5q122 0 216 92t94 215zM897 774h121v-88h-227v111q-70 -65 -144.5 -96t-161.5 -31q-186 0 -309 116t-123 289q0 170 121 286t303 116q92 0 170.5 -32.5t145.5 -96.5v108h225v-88
h-121v-594z" />
    <glyph glyph-name="guillemotleft" unicode="&#xab;" horiz-adv-x="797" 
d="M547 164l-201 381l229 383l109 -70l-192 -317l163 -318zM313 164l-200 381l227 383l109 -70l-193 -317l166 -318z" />
    <glyph glyph-name="logicalnot" unicode="&#xac;" horiz-adv-x="1706" 
d="M1452 858v-502h-96v402h-1102v100h1198z" />
    <glyph glyph-name="sfthyphen" unicode="&#xad;" horiz-adv-x="659" 
d="M563 616v-133h-469v133h469z" />
    <glyph glyph-name="registered" unicode="&#xae;" horiz-adv-x="1706" 
d="M850 1071h-158v-303h158q134 0 188 33.5t54 113.5q0 83 -57 119.5t-185 36.5zM874 1157q178 0 263.5 -57t85.5 -176q0 -89 -54 -149t-145 -73l188 -389h-145l-178 371h-197v-371h-127v844h309zM1505 721q0 134 -48 253t-138 210q-94 93 -213.5 142.5t-253.5 49.5
q-130 0 -246.5 -48t-208.5 -140q-95 -97 -145.5 -216.5t-50.5 -248.5t49.5 -247t142.5 -212q94 -93 212 -142.5t247 -49.5q130 0 250.5 50t216.5 144q91 89 138.5 204.5t47.5 250.5zM852 1456q152 0 285.5 -55t236.5 -160q102 -102 156.5 -235.5t54.5 -282.5
q0 -150 -53.5 -281t-157.5 -233q-107 -106 -242 -162.5t-280 -56.5q-147 0 -279.5 55.5t-236.5 161.5q-105 104 -160 237t-55 279q0 144 56.5 279.5t162.5 242.5q101 103 232 157t280 54z" />
    <glyph glyph-name="macron" unicode="&#xaf;" horiz-adv-x="1024" 
d="M256 1346v116h512v-116h-512z" />
    <glyph glyph-name="degree" unicode="&#xb0;" horiz-adv-x="674" 
d="M545 1174q0 86 -60.5 147t-146.5 61t-147.5 -61t-61.5 -147q0 -87 61 -147t148 -60t147 60t60 147zM338 1452q115 0 195.5 -81.5t80.5 -196.5t-81.5 -197t-196.5 -82q-117 0 -197 81t-80 198q0 116 81.5 197t197.5 81z" />
    <glyph glyph-name="plusminus" unicode="&#xb1;" horiz-adv-x="1706" 
d="M1452 150v-99h-1198v99h1198zM903 1169v-348h549v-98h-549v-348h-98v348h-551v98h551v348h98z" />
    <glyph glyph-name="twosuperior" unicode="&#xb2;" horiz-adv-x="764" 
d="M666 582h-596v84l340 295q99 84 132 135.5t33 105.5q0 83 -58.5 138t-149.5 55q-93 0 -149 -56.5t-56 -150.5v-25h-92v13q0 131 83.5 212.5t215.5 81.5q128 0 213.5 -77t85.5 -195q0 -69 -36.5 -132.5t-113.5 -127.5l-325 -272h387v122h86v-206z" />
    <glyph glyph-name="threesuperior" unicode="&#xb3;" horiz-adv-x="764" 
d="M170 848v-6q0 -90 58.5 -146.5t148.5 -56.5q94 0 155.5 57t61.5 146q0 99 -65 150.5t-189 51.5h-45v72q8 -1 16.5 -1.5t24.5 -0.5q94 0 142 36t48 107q0 61 -40.5 100.5t-102.5 39.5q-71 0 -111.5 -39t-42.5 -109h-88q6 103 72.5 163.5t173.5 60.5q99 0 167.5 -63.5
t68.5 -152.5q0 -53 -22 -91.5t-71 -69.5q79 -39 118.5 -100.5t39.5 -145.5q0 -124 -85.5 -204.5t-219.5 -80.5q-142 0 -223.5 75t-83.5 208h94z" />
    <glyph glyph-name="acute" unicode="&#xb4;" horiz-adv-x="1024" 
d="M479 1247h-92l209 350h152z" />
    <glyph glyph-name="mu" unicode="&#xb5;" horiz-adv-x="1110" 
d="M344 1065l-125 -592q-8 -39 -12 -73t-4 -66q0 -117 58 -180.5t167 -63.5q125 0 215 107.5t133 310.5l121 557h139l-164 -770q-12 -55 -17 -85t-5 -48q0 -33 17 -49.5t51 -16.5q7 0 16.5 0.5t19.5 1.5l-20 -110q-19 -5 -41 -8t-45 -3q-70 0 -103.5 36t-33.5 110v14
q-42 -77 -120 -119.5t-179 -42.5q-92 0 -161 40t-108 116l-114 -557h-140l316 1491h139z" />
    <glyph glyph-name="paragraph" unicode="&#xb6;" horiz-adv-x="1024" 
d="M940 1409h-127v-1409h-82v1409h-186v-1409h-84v782q-174 8 -275.5 102.5t-101.5 245.5q0 157 107.5 253t285.5 96h463v-70z" />
    <glyph glyph-name="glyph122" unicode="&#xb7;" horiz-adv-x="578" 
d="M186 729q0 42 30.5 72t72.5 30q41 0 71.5 -30t30.5 -72q0 -43 -29.5 -72.5t-72.5 -29.5t-73 29.5t-30 72.5z" />
    <glyph glyph-name="cedilla" unicode="&#xb8;" horiz-adv-x="1024" 
d="M303 -418v76q92 -20 145 -27.5t93 -7.5q64 0 97.5 23t33.5 67q0 54 -35 79.5t-111 25.5q-18 0 -28 -0.5t-18 -1.5l-1 184h66v-111h20q105 0 161 -44t56 -128q0 -85 -58 -130.5t-167 -45.5q-55 0 -114 9.5t-140 31.5z" />
    <glyph glyph-name="onesuperior" unicode="&#xb9;" horiz-adv-x="764" 
d="M434 657h105v-75h-299v75h94v723h-168v76h268v-799z" />
    <glyph glyph-name="ordmasculine" unicode="&#xba;" horiz-adv-x="956" 
d="M164 1071q0 -133 90.5 -222t224.5 -89t225 89.5t91 223.5q0 137 -92 225t-232 88q-126 0 -216.5 -90.5t-90.5 -224.5zM53 1071q0 169 124.5 289.5t295.5 120.5q179 0 305.5 -118t126.5 -282q0 -173 -123.5 -294t-300.5 -121q-179 0 -303.5 119t-124.5 286z" />
    <glyph glyph-name="guillemotright" unicode="&#xbb;" horiz-adv-x="797" 
d="M248 164l-109 59l164 318l-192 317l108 70l230 -383zM481 164l-108 59l164 318l-191 317l109 70l227 -383z" />
    <glyph glyph-name="onequarter" unicode="&#xbc;" horiz-adv-x="1800" 
d="M1651 72h94v-72h-289v72h100v96h-432v70l416 577h111v-577h94v-70h-94v-96zM1554 238l9 489l-344 -489h335zM1292 1485h119l-903 -1514h-121zM414 713h98v-72h-285v72h90v673h-159v70h256v-743z" />
    <glyph glyph-name="onehalf" unicode="&#xbd;" horiz-adv-x="1800" 
d="M1706 0h-569v80l325 272q97 82 127.5 129.5t30.5 98.5q0 76 -56.5 128t-142.5 52q-89 0 -142.5 -53t-53.5 -142q0 -4 1 -11t1 -11h-90v12q0 122 79.5 198t204.5 76q124 0 205.5 -71.5t81.5 -182.5q0 -64 -34.5 -123t-108.5 -120l-310 -252h369v115h82v-195zM1292 1485
h119l-903 -1514h-121zM414 713h98v-72h-285v72h90v673h-159v70h256v-743z" />
    <glyph glyph-name="threequarters" unicode="&#xbe;" horiz-adv-x="1800" 
d="M1651 72h94v-72h-289v72h100v96h-432v70l416 577h111v-577h94v-70h-94v-96zM1554 238l9 489l-344 -489h335zM1292 1485h119l-903 -1514h-121zM162 889v-4q0 -84 56 -137.5t142 -53.5q89 0 148 53.5t59 135.5q0 93 -62 141.5t-181 48.5h-43v68q7 -1 15.5 -1.5t25.5 -0.5
q90 0 136 33.5t46 99.5q0 57 -39.5 94t-97.5 37q-69 0 -107.5 -36t-40.5 -101h-84q6 94 70 150.5t166 56.5q93 0 158 -59.5t65 -141.5q0 -50 -20.5 -85.5t-65.5 -66.5q74 -35 111.5 -92t37.5 -135q0 -116 -82 -192t-210 -76q-135 0 -212.5 70t-80.5 194h90z" />
    <glyph glyph-name="questiondown" unicode="&#xbf;" horiz-adv-x="948" 
d="M565 1456v-266h-143v266h143zM422 1058l143 1q0 -94 -38.5 -183t-114.5 -171q-19 -20 -55 -54q-126 -118 -126 -252q0 -130 72 -205t195 -75q129 0 200.5 84t77.5 241h148q-3 -213 -123 -343t-314 -130q-181 0 -294 119t-113 309q0 188 167 338l24 21q82 76 115.5 144
t35.5 156z" />
    <glyph glyph-name="Agrave" unicode="&#xc0;" horiz-adv-x="1403" 
d="M961 600l-263 690l-260 -690h523zM260 133h150v-133h-471v133h163l465 1194h-164v129h385l510 -1323h164v-133h-469v133h148l-123 324h-635zM717 1593l-269 350h152l209 -350h-92z" />
    <glyph glyph-name="Aacute" unicode="&#xc1;" horiz-adv-x="1403" 
d="M961 600l-263 690l-260 -690h523zM260 133h150v-133h-471v133h163l465 1194h-164v129h385l510 -1323h164v-133h-469v133h148l-123 324h-635zM651 1593h-92l209 350h152z" />
    <glyph glyph-name="Acircumflex" unicode="&#xc2;" horiz-adv-x="1403" 
d="M961 600l-263 690l-260 -690h523zM260 133h150v-133h-471v133h163l465 1194h-164v129h385l510 -1323h164v-133h-469v133h148l-123 324h-635zM408 1593l200 350h152l200 -350h-92l-184 264l-184 -264h-92z" />
    <glyph glyph-name="Atilde" unicode="&#xc3;" horiz-adv-x="1403" 
d="M961 600l-263 690l-260 -690h523zM260 133h150v-133h-471v133h163l465 1194h-164v129h385l510 -1323h164v-133h-469v133h148l-123 324h-635zM973 1843q-26 -90 -74.5 -136t-116.5 -46q-14 0 -30 2.5t-35 7.5l-97 31q-15 4 -27.5 6t-25.5 2q-29 0 -53 -18.5t-39 -53.5h-80
q22 89 72 136t123 47q16 0 29 -2.5t24 -6.5l96 -30q13 -5 28 -8t28 -3q33 0 56 17.5t40 54.5h82z" />
    <glyph glyph-name="Adieresis" unicode="&#xc4;" horiz-adv-x="1403" 
d="M961 600l-263 690l-260 -690h523zM260 133h150v-133h-471v133h163l465 1194h-164v129h385l510 -1323h164v-133h-469v133h148l-123 324h-635zM797 1659v164h141v-164h-141zM428 1659v164h141v-164h-141z" />
    <glyph glyph-name="Aring" unicode="&#xc5;" horiz-adv-x="1403" 
d="M520 1747q0 -58 42.5 -99.5t101.5 -41.5q58 0 98.5 40.5t40.5 100.5t-40.5 100.5t-98.5 40.5t-101 -42.5t-43 -98.5zM436 1747q0 94 66 159.5t160 65.5t159.5 -65.5t65.5 -159.5q0 -95 -65 -160t-160 -65q-94 0 -160 65.5t-66 159.5zM961 600l-263 690l-260 -690h523z
M260 133h150v-133h-471v133h163l465 1194h-164v129h385l510 -1323h164v-133h-469v133h148l-123 324h-635z" />
    <glyph glyph-name="AE" unicode="&#xc6;" horiz-adv-x="1915" 
d="M506 627h479v686h-22zM182 133h164v-133h-469v133h162l795 1194h-134v129h1123v-366h-133v223h-564v-510h570v-144h-570v-518h564v224h133v-365h-838v483h-573z" />
    <glyph glyph-name="Ccedilla" unicode="&#xc7;" horiz-adv-x="1522" 
d="M1276 1331v125h129v-366h-98q-108 132 -227 192.5t-269 60.5q-244 0 -417 -180t-173 -428q0 -263 173 -444.5t417 -181.5q151 0 272 63t211 188h176q-126 -202 -284.5 -295.5t-374.5 -93.5q-313 0 -526 220.5t-213 545.5q0 153 58 290t169 247q105 104 234.5 157.5
t279.5 53.5q129 0 240 -37t223 -117zM592 -418v76q92 -20 145 -27.5t93 -7.5q64 0 97.5 23t33.5 67q0 54 -35 79.5t-111 25.5q-18 0 -28 -0.5t-18 -1.5l-1 184h66v-111h20q105 0 161 -44t56 -128q0 -85 -58 -130.5t-167 -45.5q-55 0 -114 9.5t-140 31.5z" />
    <glyph glyph-name="Egrave" unicode="&#xc8;" horiz-adv-x="1190" 
d="M965 365h133v-365h-1002v133h164v1194h-164v129h1002v-366h-133v223h-564v-510h570v-144h-570v-518h564v224zM688 1593l-269 350h152l209 -350h-92z" />
    <glyph glyph-name="Eacute" unicode="&#xc9;" horiz-adv-x="1190" 
d="M965 365h133v-365h-1002v133h164v1194h-164v129h1002v-366h-133v223h-564v-510h570v-144h-570v-518h564v224zM622 1593h-92l209 350h152z" />
    <glyph glyph-name="Ecircumflex" unicode="&#xca;" horiz-adv-x="1190" 
d="M965 365h133v-365h-1002v133h164v1194h-164v129h1002v-366h-133v223h-564v-510h570v-144h-570v-518h564v224zM379 1593l200 350h152l200 -350h-92l-184 264l-184 -264h-92z" />
    <glyph glyph-name="Edieresis" unicode="&#xcb;" horiz-adv-x="1190" 
d="M965 365h133v-365h-1002v133h164v1194h-164v129h1002v-366h-133v223h-564v-510h570v-144h-570v-518h564v224zM768 1659v164h141v-164h-141zM399 1659v164h141v-164h-141z" />
    <glyph glyph-name="Igrave" unicode="&#xcc;" horiz-adv-x="664" 
d="M260 133v1194h-164v129h471v-129h-164v-1194h164v-133h-471v133h164zM365 1593l-269 350h152l209 -350h-92z" />
    <glyph glyph-name="Iacute" unicode="&#xcd;" horiz-adv-x="664" 
d="M260 133v1194h-164v129h471v-129h-164v-1194h164v-133h-471v133h164zM299 1593h-92l209 350h152z" />
    <glyph glyph-name="Icircumflex" unicode="&#xce;" horiz-adv-x="664" 
d="M260 133v1194h-164v129h471v-129h-164v-1194h164v-133h-471v133h164zM56 1593l200 350h152l200 -350h-92l-184 264l-184 -264h-92z" />
    <glyph glyph-name="Idieresis" unicode="&#xcf;" horiz-adv-x="664" 
d="M260 133v1194h-164v129h471v-129h-164v-1194h164v-133h-471v133h164zM445 1659v164h141v-164h-141zM76 1659v164h141v-164h-141z" />
    <glyph glyph-name="Eth" unicode="&#xd0;" horiz-adv-x="1526" 
d="M420 137h336q245 0 391.5 163t146.5 435q0 265 -154.5 426.5t-410.5 161.5h-309v-530h463v-101h-463v-555zM276 133v559h-276v101h276v534h-161v129h567q178 0 295 -35.5t213 -115.5q125 -107 191.5 -255t66.5 -319q0 -192 -75 -345.5t-220 -260.5q-91 -68 -194 -96.5
t-302 -28.5h-542v133h161z" />
    <glyph glyph-name="Ntilde" unicode="&#xd1;" horiz-adv-x="1608" 
d="M1217 219v1108h-164v129h469v-129h-164v-1327h-172l-783 1237v-1104h164v-133h-471v133h164v1194h-164v129h338zM1094 1843q-26 -90 -74.5 -136t-116.5 -46q-14 0 -30 2.5t-35 7.5l-97 31q-15 4 -27.5 6t-25.5 2q-29 0 -53 -18.5t-39 -53.5h-80q22 89 72 136t123 47
q16 0 29 -2.5t24 -6.5l96 -30q13 -5 28 -8t28 -3q33 0 56 17.5t40 54.5h82z" />
    <glyph glyph-name="Ograve" unicode="&#xd2;" horiz-adv-x="1638" 
d="M223 735q0 -266 174 -445t428 -179q249 0 419.5 181t170.5 447q0 248 -176 427.5t-424 179.5q-101 0 -194.5 -34.5t-171.5 -101.5q-105 -88 -165.5 -215.5t-60.5 -259.5zM76 737q0 152 58 290t169 247q107 105 236 158t278 53q153 0 283.5 -53.5t238.5 -159.5
q111 -109 167.5 -244t56.5 -291q0 -155 -48 -284.5t-145 -235.5q-111 -122 -251 -184t-304 -62q-313 0 -526 220.5t-213 545.5zM852 1593l-269 350h152l209 -350h-92z" />
    <glyph glyph-name="Oacute" unicode="&#xd3;" horiz-adv-x="1638" 
d="M223 735q0 -266 174 -445t428 -179q249 0 419.5 181t170.5 447q0 248 -176 427.5t-424 179.5q-101 0 -194.5 -34.5t-171.5 -101.5q-105 -88 -165.5 -215.5t-60.5 -259.5zM76 737q0 152 58 290t169 247q107 105 236 158t278 53q153 0 283.5 -53.5t238.5 -159.5
q111 -109 167.5 -244t56.5 -291q0 -155 -48 -284.5t-145 -235.5q-111 -122 -251 -184t-304 -62q-313 0 -526 220.5t-213 545.5zM786 1593h-92l209 350h152z" />
    <glyph glyph-name="Ocircumflex" unicode="&#xd4;" horiz-adv-x="1638" 
d="M223 735q0 -266 174 -445t428 -179q249 0 419.5 181t170.5 447q0 248 -176 427.5t-424 179.5q-101 0 -194.5 -34.5t-171.5 -101.5q-105 -88 -165.5 -215.5t-60.5 -259.5zM76 737q0 152 58 290t169 247q107 105 236 158t278 53q153 0 283.5 -53.5t238.5 -159.5
q111 -109 167.5 -244t56.5 -291q0 -155 -48 -284.5t-145 -235.5q-111 -122 -251 -184t-304 -62q-313 0 -526 220.5t-213 545.5zM543 1593l200 350h152l200 -350h-92l-184 264l-184 -264h-92z" />
    <glyph glyph-name="Otilde" unicode="&#xd5;" horiz-adv-x="1638" 
d="M223 735q0 -266 174 -445t428 -179q249 0 419.5 181t170.5 447q0 248 -176 427.5t-424 179.5q-101 0 -194.5 -34.5t-171.5 -101.5q-105 -88 -165.5 -215.5t-60.5 -259.5zM76 737q0 152 58 290t169 247q107 105 236 158t278 53q153 0 283.5 -53.5t238.5 -159.5
q111 -109 167.5 -244t56.5 -291q0 -155 -48 -284.5t-145 -235.5q-111 -122 -251 -184t-304 -62q-313 0 -526 220.5t-213 545.5zM1108 1843q-26 -90 -74.5 -136t-116.5 -46q-14 0 -30 2.5t-35 7.5l-97 31q-15 4 -27.5 6t-25.5 2q-29 0 -53 -18.5t-39 -53.5h-80q22 89 72 136
t123 47q16 0 29 -2.5t24 -6.5l96 -30q13 -5 28 -8t28 -3q33 0 56 17.5t40 54.5h82z" />
    <glyph glyph-name="Odieresis" unicode="&#xd6;" horiz-adv-x="1638" 
d="M223 735q0 -266 174 -445t428 -179q249 0 419.5 181t170.5 447q0 248 -176 427.5t-424 179.5q-101 0 -194.5 -34.5t-171.5 -101.5q-105 -88 -165.5 -215.5t-60.5 -259.5zM76 737q0 152 58 290t169 247q107 105 236 158t278 53q153 0 283.5 -53.5t238.5 -159.5
q111 -109 167.5 -244t56.5 -291q0 -155 -48 -284.5t-145 -235.5q-111 -122 -251 -184t-304 -62q-313 0 -526 220.5t-213 545.5zM932 1659v164h141v-164h-141zM563 1659v164h141v-164h-141z" />
    <glyph glyph-name="multiply" unicode="&#xd7;" horiz-adv-x="1706" 
d="M856 680l481 481l70 -69l-481 -482l481 -481l-70 -70l-481 482l-481 -482l-70 70l481 481l-481 482l70 69z" />
    <glyph glyph-name="Oslash" unicode="&#xd8;" horiz-adv-x="1638" 
d="M393 301l772 926q-81 60 -160.5 87t-173.5 27q-253 0 -427.5 -177.5t-174.5 -428.5q0 -125 43 -238t121 -196zM1247 1149l-768 -922q82 -59 164.5 -86.5t175.5 -27.5q252 0 424 180t172 440q0 122 -42 226.5t-126 189.5zM301 188q-111 121 -165 256.5t-54 292.5
q0 313 216.5 528.5t535.5 215.5q119 0 222 -35t201 -109l173 207l90 -69l-179 -211q112 -105 167 -236.5t55 -292.5q0 -326 -214.5 -544t-531.5 -218q-122 0 -222.5 33.5t-207.5 110.5l-207 -248l-86 70z" />
    <glyph glyph-name="Ugrave" unicode="&#xd9;" horiz-adv-x="1442" 
d="M256 1327h-166v129h471v-129h-164v-764q0 -120 9 -178.5t30 -103.5q39 -83 115 -131t170 -48q73 0 137 30.5t109 86.5q41 52 59 116.5t18 192.5v35v764h-163v129h469v-129h-164v-795q0 -283 -112.5 -422t-342.5 -139q-244 0 -359.5 136t-115.5 425v795zM754 1593
l-269 350h152l209 -350h-92z" />
    <glyph glyph-name="Uacute" unicode="&#xda;" horiz-adv-x="1442" 
d="M256 1327h-166v129h471v-129h-164v-764q0 -120 9 -178.5t30 -103.5q39 -83 115 -131t170 -48q73 0 137 30.5t109 86.5q41 52 59 116.5t18 192.5v35v764h-163v129h469v-129h-164v-795q0 -283 -112.5 -422t-342.5 -139q-244 0 -359.5 136t-115.5 425v795zM688 1593h-92
l209 350h152z" />
    <glyph glyph-name="Ucircumflex" unicode="&#xdb;" horiz-adv-x="1442" 
d="M256 1327h-166v129h471v-129h-164v-764q0 -120 9 -178.5t30 -103.5q39 -83 115 -131t170 -48q73 0 137 30.5t109 86.5q41 52 59 116.5t18 192.5v35v764h-163v129h469v-129h-164v-795q0 -283 -112.5 -422t-342.5 -139q-244 0 -359.5 136t-115.5 425v795zM445 1593l200 350
h152l200 -350h-92l-184 264l-184 -264h-92z" />
    <glyph glyph-name="Udieresis" unicode="&#xdc;" horiz-adv-x="1442" 
d="M256 1327h-166v129h471v-129h-164v-764q0 -120 9 -178.5t30 -103.5q39 -83 115 -131t170 -48q73 0 137 30.5t109 86.5q41 52 59 116.5t18 192.5v35v764h-163v129h469v-129h-164v-795q0 -283 -112.5 -422t-342.5 -139q-244 0 -359.5 136t-115.5 425v795zM834 1659v164h141
v-164h-141zM465 1659v164h141v-164h-141z" />
    <glyph glyph-name="Yacute" unicode="&#xdd;" horiz-adv-x="1118" 
d="M870 1327h-125v129h435v-129h-148l-401 -792v-402h162v-133h-469v133h163v404l-399 790h-149v129h436v-129h-125l311 -627zM526 1593h-92l209 350h152z" />
    <glyph glyph-name="Thorn" unicode="&#xde;" horiz-adv-x="1190" 
d="M403 485h213q169 0 255.5 66t86.5 194q0 133 -85 194.5t-269 61.5h-201v-516zM260 1327h-164v129h471v-129h-164v-182h193q123 0 192.5 -12t120.5 -39q93 -50 149 -144t56 -198q0 -188 -138 -298t-380 -110h-193v-211h164v-133h-471v133h164v1194z" />
    <glyph glyph-name="germandbls" unicode="&#xdf;" horiz-adv-x="1290" 
d="M238 127v817q0 161 14 231t47 121q55 89 146 139t196 50q184 0 303 -109t119 -278q0 -107 -48 -186.5t-145 -133.5q144 -46 220.5 -146.5t76.5 -242.5q0 -176 -117 -296t-296 -120q-50 0 -94 9.5t-87 29.5v129q42 -20 83 -29.5t85 -9.5q123 0 201 82t78 209
q0 138 -103 217.5t-282 79.5h-25v125h6q138 0 221 76t83 203q0 111 -79.5 185.5t-199.5 74.5q-67 0 -120.5 -27t-92.5 -80q-29 -39 -41 -88t-12 -170v-989h-301v127h164z" />
    <glyph glyph-name="agrave" unicode="&#xe0;" horiz-adv-x="1442" 
d="M1057 543q0 188 -125 321t-293 133q-173 0 -297.5 -126.5t-124.5 -309.5q0 -193 124.5 -324t301.5 -131q163 0 288.5 131t125.5 306zM1196 127h162v-127h-305v158q-94 -94 -192.5 -138.5t-213.5 -44.5q-247 0 -411 166.5t-164 413.5q0 242 160.5 407.5t402.5 165.5
q124 0 229.5 -45.5t192.5 -136.5v154h301v-127h-162v-846zM707 1247l-269 350h152l209 -350h-92z" />
    <glyph glyph-name="aacute" unicode="&#xe1;" horiz-adv-x="1442" 
d="M1057 543q0 188 -125 321t-293 133q-173 0 -297.5 -126.5t-124.5 -309.5q0 -193 124.5 -324t301.5 -131q163 0 288.5 131t125.5 306zM1196 127h162v-127h-305v158q-94 -94 -192.5 -138.5t-213.5 -44.5q-247 0 -411 166.5t-164 413.5q0 242 160.5 407.5t402.5 165.5
q124 0 229.5 -45.5t192.5 -136.5v154h301v-127h-162v-846zM641 1247h-92l209 350h152z" />
    <glyph glyph-name="acircumflex" unicode="&#xe2;" horiz-adv-x="1442" 
d="M1057 543q0 188 -125 321t-293 133q-173 0 -297.5 -126.5t-124.5 -309.5q0 -193 124.5 -324t301.5 -131q163 0 288.5 131t125.5 306zM1196 127h162v-127h-305v158q-94 -94 -192.5 -138.5t-213.5 -44.5q-247 0 -411 166.5t-164 413.5q0 242 160.5 407.5t402.5 165.5
q124 0 229.5 -45.5t192.5 -136.5v154h301v-127h-162v-846zM398 1247l200 350h152l200 -350h-92l-184 264l-184 -264h-92z" />
    <glyph glyph-name="atilde" unicode="&#xe3;" horiz-adv-x="1442" 
d="M1057 543q0 188 -125 321t-293 133q-173 0 -297.5 -126.5t-124.5 -309.5q0 -193 124.5 -324t301.5 -131q163 0 288.5 131t125.5 306zM1196 127h162v-127h-305v158q-94 -94 -192.5 -138.5t-213.5 -44.5q-247 0 -411 166.5t-164 413.5q0 242 160.5 407.5t402.5 165.5
q124 0 229.5 -45.5t192.5 -136.5v154h301v-127h-162v-846zM963 1497q-26 -90 -74.5 -136t-116.5 -46q-14 0 -30 2.5t-35 7.5l-97 31q-15 4 -27.5 6t-25.5 2q-29 0 -53 -18.5t-39 -53.5h-80q22 89 72 136t123 47q16 0 29 -2.5t24 -6.5l96 -30q13 -5 28 -8t28 -3q33 0 56 17.5
t40 54.5h82z" />
    <glyph glyph-name="adieresis" unicode="&#xe4;" horiz-adv-x="1442" 
d="M1057 543q0 188 -125 321t-293 133q-173 0 -297.5 -126.5t-124.5 -309.5q0 -193 124.5 -324t301.5 -131q163 0 288.5 131t125.5 306zM1196 127h162v-127h-305v158q-94 -94 -192.5 -138.5t-213.5 -44.5q-247 0 -411 166.5t-164 413.5q0 242 160.5 407.5t402.5 165.5
q124 0 229.5 -45.5t192.5 -136.5v154h301v-127h-162v-846zM787 1313v164h141v-164h-141zM418 1313v164h141v-164h-141z" />
    <glyph glyph-name="aring" unicode="&#xe5;" horiz-adv-x="1442" 
d="M535 1444q0 -62 43.5 -106t105.5 -44t107 44.5t45 105.5q0 62 -45 105.5t-107 43.5q-63 0 -106 -43t-43 -106zM442 1440q0 101 70.5 171t171.5 70t172.5 -70.5t71.5 -170.5t-72 -172t-172 -72t-171 71.5t-71 172.5zM1057 543q0 188 -125 321t-293 133
q-173 0 -297.5 -126.5t-124.5 -309.5q0 -193 124.5 -324t301.5 -131q163 0 288.5 131t125.5 306zM1196 127h162v-127h-305v158q-94 -94 -192.5 -138.5t-213.5 -44.5q-247 0 -411 166.5t-164 413.5q0 242 160.5 407.5t402.5 165.5q124 0 229.5 -45.5t192.5 -136.5v154h301
v-127h-162v-846z" />
    <glyph glyph-name="ae" unicode="&#xe6;" horiz-adv-x="2257" 
d="M2038 625q-37 177 -145.5 274.5t-268.5 97.5q-165 0 -281 -103t-137 -269h832zM1057 557q0 175 -125.5 306.5t-288.5 131.5q-176 0 -301 -131.5t-125 -324.5q0 -184 124.5 -310.5t297.5 -126.5q168 0 293 133.5t125 321.5zM2154 344q-74 -180 -210.5 -278.5t-311.5 -98.5
q-140 0 -249 60.5t-195 187.5v-215h-131l8 215q-87 -126 -194.5 -187t-241.5 -61q-232 0 -394.5 169t-162.5 409q0 245 165 415t400 170q127 0 234.5 -62.5t193.5 -186.5l-2 219h127l-4 -219q87 127 195 188t245 61q243 0 403 -173t160 -441v-12h-987q14 -177 132 -289.5
t288 -112.5q123 0 221.5 63.5t153.5 178.5h157z" />
    <glyph glyph-name="ccedilla" unicode="&#xe7;" horiz-adv-x="1208" 
d="M1010 764q-66 120 -159.5 176.5t-223.5 56.5q-173 0 -291.5 -128.5t-118.5 -319.5t120.5 -317t301.5 -126q125 0 222 63t147 177h157q-64 -180 -200.5 -277.5t-323.5 -97.5q-240 0 -404.5 169t-164.5 407q0 247 167 415t414 168q99 0 180 -30t156 -94v94h129v-336h-108z
M424 -418v76q92 -20 145 -27.5t93 -7.5q64 0 97.5 23t33.5 67q0 54 -35 79.5t-111 25.5q-18 0 -28 -0.5t-18 -1.5l-1 184h66v-111h20q105 0 161 -44t56 -128q0 -85 -58 -130.5t-167 -45.5q-55 0 -114 9.5t-140 31.5z" />
    <glyph glyph-name="egrave" unicode="&#xe8;" horiz-adv-x="1272" 
d="M1053 625q-37 177 -145.5 274.5t-268.5 97.5q-165 0 -281 -103t-137 -269h832zM1204 504h-987q14 -175 131.5 -286.5t288.5 -111.5q124 0 222.5 63t152.5 177h157q-76 -181 -213 -278t-315 -97q-240 0 -404.5 169t-164.5 407q0 242 165 412.5t394 170.5
q248 0 410.5 -170.5t162.5 -437.5v-18zM670 1247l-269 350h152l209 -350h-92z" />
    <glyph glyph-name="eacute" unicode="&#xe9;" horiz-adv-x="1272" 
d="M1053 625q-37 177 -145.5 274.5t-268.5 97.5q-165 0 -281 -103t-137 -269h832zM1204 504h-987q14 -175 131.5 -286.5t288.5 -111.5q124 0 222.5 63t152.5 177h157q-76 -181 -213 -278t-315 -97q-240 0 -404.5 169t-164.5 407q0 242 165 412.5t394 170.5
q248 0 410.5 -170.5t162.5 -437.5v-18zM604 1247h-92l209 350h152z" />
    <glyph glyph-name="ecircumflex" unicode="&#xea;" horiz-adv-x="1272" 
d="M1053 625q-37 177 -145.5 274.5t-268.5 97.5q-165 0 -281 -103t-137 -269h832zM1204 504h-987q14 -175 131.5 -286.5t288.5 -111.5q124 0 222.5 63t152.5 177h157q-76 -181 -213 -278t-315 -97q-240 0 -404.5 169t-164.5 407q0 242 165 412.5t394 170.5
q248 0 410.5 -170.5t162.5 -437.5v-18zM361 1247l200 350h152l200 -350h-92l-184 264l-184 -264h-92z" />
    <glyph glyph-name="edieresis" unicode="&#xeb;" horiz-adv-x="1272" 
d="M1053 625q-37 177 -145.5 274.5t-268.5 97.5q-165 0 -281 -103t-137 -269h832zM1204 504h-987q14 -175 131.5 -286.5t288.5 -111.5q124 0 222.5 63t152.5 177h157q-76 -181 -213 -278t-315 -97q-240 0 -404.5 169t-164.5 407q0 242 165 412.5t394 170.5
q248 0 410.5 -170.5t162.5 -437.5v-18zM750 1313v164h141v-164h-141zM381 1313v164h141v-164h-141z" />
    <glyph glyph-name="igrave" unicode="&#xec;" horiz-adv-x="612" 
d="M246 127v848h-162v125h299v-973h166v-127h-465v127h162zM301 1247l-269 350h152l209 -350h-92z" />
    <glyph glyph-name="iacute" unicode="&#xed;" horiz-adv-x="612" 
d="M246 127v848h-162v125h299v-973h166v-127h-465v127h162zM235 1247h-92l209 350h152z" />
    <glyph glyph-name="icircumflex" unicode="&#xee;" horiz-adv-x="612" 
d="M246 127v848h-162v125h299v-973h166v-127h-465v127h162zM-8 1247l200 350h152l200 -350h-92l-184 264l-184 -264h-92z" />
    <glyph glyph-name="idieresis" unicode="&#xef;" horiz-adv-x="612" 
d="M246 127v848h-162v125h299v-973h166v-127h-465v127h162zM381 1313v164h141v-164h-141zM12 1313v164h141v-164h-141z" />
    <glyph glyph-name="eth" unicode="&#xf0;" horiz-adv-x="1235" 
d="M223 522q0 -179 114 -299.5t281 -120.5q166 0 279 121.5t113 300.5q0 184 -113.5 302t-288.5 118q-156 0 -270.5 -121.5t-114.5 -300.5zM696 1348l301 118l37 -90l-246 -92q177 -143 269 -323.5t92 -385.5q0 -268 -148.5 -436t-382.5 -168q-225 0 -379.5 159t-154.5 384
q0 226 152.5 386.5t365.5 160.5q93 0 173.5 -31t158.5 -96l4 4q-54 90 -128 163.5t-165 127.5l-305 -119l-39 88l248 92q-36 23 -76.5 43.5t-87.5 38.5l55 113q75 -36 138 -70t118 -67z" />
    <glyph glyph-name="ntilde" unicode="&#xf1;" horiz-adv-x="1384" 
d="M246 127v848h-162v125h301v-164q59 96 141 141t197 45q114 0 209.5 -47t157.5 -133q41 -59 59 -130t18 -200v-485h164v-127h-467v127h164v444q0 105 -7 158t-24 94q-34 81 -105 123.5t-171 42.5q-170 0 -254 -113t-84 -341v-408h166v-127h-465v127h162zM981 1497
q-26 -90 -74.5 -136t-116.5 -46q-14 0 -30 2.5t-35 7.5l-97 31q-15 4 -27.5 6t-25.5 2q-29 0 -53 -18.5t-39 -53.5h-80q22 89 72 136t123 47q16 0 29 -2.5t24 -6.5l96 -30q13 -5 28 -8t28 -3q33 0 56 17.5t40 54.5h82z" />
    <glyph glyph-name="ograve" unicode="&#xf2;" horiz-adv-x="1276" 
d="M219 551q0 -191 120 -319t300 -128q177 0 298.5 129t121.5 320q0 195 -122 320.5t-308 125.5q-169 0 -289.5 -129t-120.5 -319zM72 549q0 242 165.5 414t393.5 172q239 0 407 -169t168 -403q0 -246 -164.5 -420t-400.5 -174q-239 0 -404 170.5t-165 409.5zM672 1247
l-269 350h152l209 -350h-92z" />
    <glyph glyph-name="oacute" unicode="&#xf3;" horiz-adv-x="1276" 
d="M219 551q0 -191 120 -319t300 -128q177 0 298.5 129t121.5 320q0 195 -122 320.5t-308 125.5q-169 0 -289.5 -129t-120.5 -319zM72 549q0 242 165.5 414t393.5 172q239 0 407 -169t168 -403q0 -246 -164.5 -420t-400.5 -174q-239 0 -404 170.5t-165 409.5zM606 1247h-92
l209 350h152z" />
    <glyph glyph-name="ocircumflex" unicode="&#xf4;" horiz-adv-x="1276" 
d="M219 551q0 -191 120 -319t300 -128q177 0 298.5 129t121.5 320q0 195 -122 320.5t-308 125.5q-169 0 -289.5 -129t-120.5 -319zM72 549q0 242 165.5 414t393.5 172q239 0 407 -169t168 -403q0 -246 -164.5 -420t-400.5 -174q-239 0 -404 170.5t-165 409.5zM363 1247
l200 350h152l200 -350h-92l-184 264l-184 -264h-92z" />
    <glyph glyph-name="otilde" unicode="&#xf5;" horiz-adv-x="1276" 
d="M219 551q0 -191 120 -319t300 -128q177 0 298.5 129t121.5 320q0 195 -122 320.5t-308 125.5q-169 0 -289.5 -129t-120.5 -319zM72 549q0 242 165.5 414t393.5 172q239 0 407 -169t168 -403q0 -246 -164.5 -420t-400.5 -174q-239 0 -404 170.5t-165 409.5zM928 1497
q-26 -90 -74.5 -136t-116.5 -46q-14 0 -30 2.5t-35 7.5l-97 31q-15 4 -27.5 6t-25.5 2q-29 0 -53 -18.5t-39 -53.5h-80q22 89 72 136t123 47q16 0 29 -2.5t24 -6.5l96 -30q13 -5 28 -8t28 -3q33 0 56 17.5t40 54.5h82z" />
    <glyph glyph-name="odieresis" unicode="&#xf6;" horiz-adv-x="1276" 
d="M219 551q0 -191 120 -319t300 -128q177 0 298.5 129t121.5 320q0 195 -122 320.5t-308 125.5q-169 0 -289.5 -129t-120.5 -319zM72 549q0 242 165.5 414t393.5 172q239 0 407 -169t168 -403q0 -246 -164.5 -420t-400.5 -174q-239 0 -404 170.5t-165 409.5zM752 1313v164
h141v-164h-141zM383 1313v164h141v-164h-141z" />
    <glyph glyph-name="divide" unicode="&#xf7;" horiz-adv-x="1706" 
d="M854 365q45 0 76 -31t31 -76q0 -44 -31 -75t-76 -31t-75.5 31t-30.5 75t31 75.5t75 31.5zM1452 659v-98h-1198v98h1198zM854 1071q44 0 75.5 -32t31.5 -76q0 -45 -31 -76t-76 -31t-75.5 30.5t-30.5 76.5q0 44 31.5 76t74.5 32z" />
    <glyph glyph-name="oslash" unicode="&#xf8;" horiz-adv-x="1276" 
d="M934 879l-506 -719q50 -27 100 -40.5t105 -13.5q187 0 306.5 127.5t119.5 329.5q0 92 -31.5 171.5t-93.5 144.5zM344 227l504 717q-54 29 -103.5 42t-101.5 13q-181 0 -302.5 -127t-121.5 -321q0 -95 31.5 -176t93.5 -148zM127 -86l137 199q-90 83 -141 198.5t-51 237.5
q0 245 166.5 415.5t404.5 170.5q74 0 143 -19.5t140 -60.5l114 166l86 -62l-114 -168q95 -89 144.5 -198.5t49.5 -229.5q0 -250 -165.5 -421t-411.5 -171q-75 0 -142 19t-137 59l-137 -196z" />
    <glyph glyph-name="ugrave" unicode="&#xf9;" horiz-adv-x="1366" 
d="M1001 164q-58 -95 -141.5 -141t-195.5 -46q-117 0 -213 47t-156 134q-42 59 -60 127.5t-18 201.5v486h-162v127h301v-572q0 -104 7.5 -157t23.5 -95q34 -79 105.5 -121t173.5 -42q169 0 252 111.5t83 340.5v408h-165v127h303v-975h164v-125h-302v164zM686 1247l-269 350
h152l209 -350h-92z" />
    <glyph glyph-name="uacute" unicode="&#xfa;" horiz-adv-x="1366" 
d="M1001 164q-58 -95 -141.5 -141t-195.5 -46q-117 0 -213 47t-156 134q-42 59 -60 127.5t-18 201.5v486h-162v127h301v-572q0 -104 7.5 -157t23.5 -95q34 -79 105.5 -121t173.5 -42q169 0 252 111.5t83 340.5v408h-165v127h303v-975h164v-125h-302v164zM620 1247h-92
l209 350h152z" />
    <glyph glyph-name="ucircumflex" unicode="&#xfb;" horiz-adv-x="1366" 
d="M1001 164q-58 -95 -141.5 -141t-195.5 -46q-117 0 -213 47t-156 134q-42 59 -60 127.5t-18 201.5v486h-162v127h301v-572q0 -104 7.5 -157t23.5 -95q34 -79 105.5 -121t173.5 -42q169 0 252 111.5t83 340.5v408h-165v127h303v-975h164v-125h-302v164zM377 1247l200 350
h152l200 -350h-92l-184 264l-184 -264h-92z" />
    <glyph glyph-name="udieresis" unicode="&#xfc;" horiz-adv-x="1366" 
d="M1001 164q-58 -95 -141.5 -141t-195.5 -46q-117 0 -213 47t-156 134q-42 59 -60 127.5t-18 201.5v486h-162v127h301v-572q0 -104 7.5 -157t23.5 -95q34 -79 105.5 -121t173.5 -42q169 0 252 111.5t83 340.5v408h-165v127h303v-975h164v-125h-302v164zM766 1313v164h141
v-164h-141zM397 1313v164h141v-164h-141z" />
    <glyph glyph-name="yacute" unicode="&#xfd;" horiz-adv-x="1169" 
d="M510 12l-381 963h-152v125h461v-125h-164l308 -776l307 776h-164v125h459v-125h-150l-477 -1202h143v-129h-460v129h174zM553 1247h-92l209 350h152z" />
    <glyph glyph-name="thorn" unicode="&#xfe;" horiz-adv-x="1432" 
d="M788 993q-164 0 -287.5 -130.5t-123.5 -311.5q0 -183 125 -316t291 -133q173 0 297 126.5t124 310.5q0 193 -124.5 323.5t-301.5 130.5zM238 -227v1556h-164v127h305v-514q95 95 193 138.5t212 43.5q246 0 412 -164.5t166 -400.5q0 -253 -160.5 -420.5t-404.5 -167.5
q-124 0 -228.5 45.5t-191.5 137.5v-381h162v-129h-465v129h164z" />
    <glyph glyph-name="ydieresis" unicode="&#xff;" horiz-adv-x="1169" 
d="M510 12l-381 963h-152v125h461v-125h-164l308 -776l307 776h-164v125h459v-125h-150l-477 -1202h143v-129h-460v129h174zM699 1313v164h141v-164h-141zM330 1313v164h141v-164h-141z" />
    <glyph glyph-name="Cacute" unicode="&#x106;" horiz-adv-x="1522" 
d="M1276 1331v125h129v-366h-98q-108 132 -227 192.5t-269 60.5q-244 0 -417 -180t-173 -428q0 -263 173 -444.5t417 -181.5q151 0 272 63t211 188h176q-126 -202 -284.5 -295.5t-374.5 -93.5q-313 0 -526 220.5t-213 545.5q0 153 58 290t169 247q105 104 234.5 157.5
t279.5 53.5q129 0 240 -37t223 -117zM784 1593h-92l209 350h152z" />
    <glyph glyph-name="cacute" unicode="&#x107;" horiz-adv-x="1208" 
d="M1010 764q-66 120 -159.5 176.5t-223.5 56.5q-173 0 -291.5 -128.5t-118.5 -319.5t120.5 -317t301.5 -126q125 0 222 63t147 177h157q-64 -180 -200.5 -277.5t-323.5 -97.5q-240 0 -404.5 169t-164.5 407q0 247 167 415t414 168q99 0 180 -30t156 -94v94h129v-336h-108z
M635 1247h-92l209 350h152z" />
    <glyph glyph-name="Ccaron" unicode="&#x10c;" horiz-adv-x="1522" 
d="M1276 1331v125h129v-366h-98q-108 132 -227 192.5t-269 60.5q-244 0 -417 -180t-173 -428q0 -263 173 -444.5t417 -181.5q151 0 272 63t211 188h176q-126 -202 -284.5 -295.5t-374.5 -93.5q-313 0 -526 220.5t-213 545.5q0 153 58 290t169 247q105 104 234.5 157.5
t279.5 53.5q129 0 240 -37t223 -117zM541 1943h92l184 -262l184 262h92l-200 -348h-152z" />
    <glyph glyph-name="ccaron" unicode="&#x10d;" horiz-adv-x="1208" 
d="M1010 764q-66 120 -159.5 176.5t-223.5 56.5q-173 0 -291.5 -128.5t-118.5 -319.5t120.5 -317t301.5 -126q125 0 222 63t147 177h157q-64 -180 -200.5 -277.5t-323.5 -97.5q-240 0 -404.5 169t-164.5 407q0 247 167 415t414 168q99 0 180 -30t156 -94v94h129v-336h-108z
M392 1597h92l184 -262l184 262h92l-200 -348h-152z" />
    <glyph glyph-name="dcroat" unicode="&#x111;" horiz-adv-x="1440" 
d="M217 561q0 -193 124.5 -324t301.5 -131q163 0 288.5 131t125.5 306q0 188 -125 321t-293 133q-172 0 -297 -127t-125 -309zM1057 168q-88 -99 -188 -146t-222 -47q-247 0 -411 166.5t-164 413.5q0 242 160.5 407.5t402.5 165.5q123 0 227 -45t195 -137v248h-467v92h467
v70h-164v100h303v-170h246v-92h-246v-1067h162v-127h-301v168z" />
    <glyph glyph-name="Gbreve" unicode="&#x11e;" horiz-adv-x="1626" 
d="M1395 238q-120 -136 -262 -201.5t-314 -65.5q-317 0 -530 220t-213 546q0 153 58 290t169 247q108 107 239 159t296 52q125 0 229.5 -36t212.5 -116v123h127v-366h-98q-104 131 -221.5 193.5t-262.5 62.5q-251 0 -425.5 -180t-174.5 -431q0 -268 173 -447t427 -179
q200 0 359 128t207 332h-736v129h869v-698h-129v238zM539 1900h79q6 -75 53 -110t142 -35q96 0 141 34.5t52 110.5h81q-9 -136 -74.5 -199t-199.5 -63q-133 0 -199 63.5t-75 198.5z" />
    <glyph glyph-name="gbreve" unicode="&#x11f;" horiz-adv-x="1419" 
d="M221 559q0 -193 123 -323t295 -130q164 0 289 130.5t125 306.5q0 188 -123 321t-291 133q-172 0 -295 -126.5t-123 -311.5zM1190 182q0 -272 -144 -423.5t-399 -151.5q-201 0 -327 81.5t-170 239.5h169q28 -96 113.5 -146t220.5 -50q182 0 289 113t107 307v24
q-88 -103 -187.5 -152t-222.5 -49q-241 0 -404 167t-163 413q0 244 160.5 408.5t402.5 164.5q133 0 234.5 -48t181.5 -148v168h303v-125h-164v-793zM437 1554h79q6 -75 53 -110t142 -35q96 0 141 34.5t52 110.5h81q-9 -136 -74.5 -199t-199.5 -63q-133 0 -199 63.5
t-75 198.5z" />
    <glyph glyph-name="Idotaccent" unicode="&#x130;" horiz-adv-x="664" 
d="M260 133v1194h-164v129h471v-129h-164v-1194h164v-133h-471v133h164zM256 1644v175h152v-175h-152z" />
    <glyph glyph-name="dotlessi" unicode="&#x131;" horiz-adv-x="612" 
d="M246 127v848h-162v125h299v-973h166v-127h-465v127h162z" />
    <glyph glyph-name="Lslash" unicode="&#x141;" horiz-adv-x="1200" 
d="M106 0v133h166v510l-272 -192v118l272 189v569h-166v129h469v-129h-159v-483l401 282v-118l-401 -283v-592h559v232h133v-365h-1002z" />
    <glyph glyph-name="lslash" unicode="&#x142;" horiz-adv-x="631" 
d="M256 127v516l-256 -180v106l256 179v581h-164v127h303v-618l236 163v-106l-236 -164v-604h164v-127h-467v127h164z" />
    <glyph glyph-name="OE" unicode="&#x152;" horiz-adv-x="2337" 
d="M225 735q0 -266 173 -445t427 -179q247 0 418.5 181.5t171.5 446.5q0 248 -176 427.5t-424 179.5q-101 0 -194.5 -34.5t-171.5 -101.5q-104 -88 -164 -215t-60 -260zM1407 260q-129 -150 -272 -219.5t-320 -69.5q-314 0 -526.5 220t-212.5 546q0 152 58 290t169 247
q107 105 235 158t277 53q181 0 330.5 -73t261.5 -216v260h838v-366h-134v223h-563v-510h570v-144h-570v-518h563v224h134v-365h-838v260z" />
    <glyph glyph-name="oe" unicode="&#x153;" horiz-adv-x="2259" 
d="M2042 625q-37 178 -145.5 276t-268.5 98q-165 0 -281.5 -104t-138.5 -270h834zM219 551q0 -191 120 -319t300 -128q177 0 298.5 129t121.5 320q0 195 -122 320.5t-308 125.5q-169 0 -289.5 -129t-120.5 -319zM2193 504h-989q14 -177 131.5 -288.5t288.5 -111.5
q124 0 222.5 63t154.5 177h158q-77 -181 -214 -278t-317 -97q-164 0 -291 76.5t-207 222.5q-78 -150 -200.5 -224.5t-288.5 -74.5q-240 0 -404.5 170t-164.5 410q0 245 166 414.5t405 169.5q156 0 284.5 -78.5t205.5 -220.5q80 139 209.5 219t275.5 80q248 0 411.5 -173.5
t163.5 -441.5v-14z" />
    <glyph glyph-name="Scedilla" unicode="&#x15e;" horiz-adv-x="1075" 
d="M899 1456v-373h-115q-37 138 -105 205.5t-169 67.5q-110 0 -182 -75.5t-72 -193.5q0 -50 15.5 -93t45.5 -74q56 -59 230 -99q55 -13 81 -20q167 -46 255 -147.5t88 -247.5q0 -191 -118 -314t-296 -123q-103 0 -184 32.5t-127 92.5v-94h-123v403h123q7 -147 85 -227
t214 -80q132 0 212.5 83t80.5 220q0 96 -59.5 165t-172.5 104q-32 10 -99 26q-179 44 -257 105q-67 52 -99 119.5t-32 154.5q0 181 110.5 295.5t284.5 114.5q78 0 142.5 -29t127.5 -92v94h115zM330 -418v76q92 -20 145 -27.5t93 -7.5q64 0 97.5 23t33.5 67q0 54 -35 79.5
t-111 25.5q-18 0 -28 -0.5t-18 -1.5l-1 184h66v-111h20q105 0 161 -44t56 -128q0 -85 -58 -130.5t-167 -45.5q-55 0 -114 9.5t-140 31.5z" />
    <glyph glyph-name="scedilla" unicode="&#x15f;" horiz-adv-x="915" 
d="M72 0v338h133v-12q0 -100 70.5 -161t185.5 -61q102 0 160.5 53t58.5 146q0 133 -239 196q-41 11 -62 17q-149 41 -219 116t-70 193q0 137 91.5 221t242.5 84q67 0 119.5 -24.5t97.5 -77.5v72h125v-275h-127q-22 89 -74.5 132.5t-138.5 43.5q-91 0 -143 -44.5t-52 -122.5
q0 -134 244 -196l57 -15q158 -42 227.5 -117.5t69.5 -200.5q0 -152 -99.5 -243t-268.5 -91q-84 0 -146 28t-112 89v-88h-131zM250 -418v76q92 -20 145 -27.5t93 -7.5q64 0 97.5 23t33.5 67q0 54 -35 79.5t-111 25.5q-18 0 -28 -0.5t-18 -1.5l-1 184h66v-111h20
q105 0 161 -44t56 -128q0 -85 -58 -130.5t-167 -45.5q-55 0 -114 9.5t-140 31.5z" />
    <glyph glyph-name="Scaron" unicode="&#x160;" horiz-adv-x="1075" 
d="M899 1456v-373h-115q-37 138 -105 205.5t-169 67.5q-110 0 -182 -75.5t-72 -193.5q0 -50 15.5 -93t45.5 -74q56 -59 230 -99q55 -13 81 -20q167 -46 255 -147.5t88 -247.5q0 -191 -118 -314t-296 -123q-103 0 -184 32.5t-127 92.5v-94h-123v403h123q7 -147 85 -227
t214 -80q132 0 212.5 83t80.5 220q0 96 -59.5 165t-172.5 104q-32 10 -99 26q-179 44 -257 105q-67 52 -99 119.5t-32 154.5q0 181 110.5 295.5t284.5 114.5q78 0 142.5 -29t127.5 -92v94h115zM263 1943h92l184 -262l184 262h92l-200 -348h-152z" />
    <glyph glyph-name="scaron" unicode="&#x161;" horiz-adv-x="915" 
d="M72 0v338h133v-12q0 -100 70.5 -161t185.5 -61q102 0 160.5 53t58.5 146q0 133 -239 196q-41 11 -62 17q-149 41 -219 116t-70 193q0 137 91.5 221t242.5 84q67 0 119.5 -24.5t97.5 -77.5v72h125v-275h-127q-22 89 -74.5 132.5t-138.5 43.5q-91 0 -143 -44.5t-52 -122.5
q0 -134 244 -196l57 -15q158 -42 227.5 -117.5t69.5 -200.5q0 -152 -99.5 -243t-268.5 -91q-84 0 -146 28t-112 89v-88h-131zM183 1597h92l184 -262l184 262h92l-200 -348h-152z" />
    <glyph glyph-name="Ydieresis" unicode="&#x178;" horiz-adv-x="1118" 
d="M870 1327h-125v129h435v-129h-148l-401 -792v-402h162v-133h-469v133h163v404l-399 790h-149v129h436v-129h-125l311 -627zM672 1659v164h141v-164h-141zM303 1659v164h141v-164h-141z" />
    <glyph glyph-name="Zcaron" unicode="&#x17d;" horiz-adv-x="1034" 
d="M780 1313h-557v-221h-131v364h850v-137l-694 -1178h577v224h131v-365h-880v137zM242 1943h92l184 -262l184 262h92l-200 -348h-152z" />
    <glyph glyph-name="zcaron" unicode="&#x17e;" horiz-adv-x="956" 
d="M870 0h-776v133l578 834h-430v-172h-129v305h710v-152l-561 -807h479v170h129v-311zM203 1597h92l184 -262l184 262h92l-200 -348h-152z" />
    <glyph glyph-name="florin" unicode="&#x192;" 
d="M582 -63q-20 -210 -108 -291.5t-288 -81.5h-32l12 133h43q125 0 172 41.5t57 162.5l74 834h-256l12 133h256l19 226q11 140 31.5 195t60.5 93q43 41 111.5 63.5t146.5 22.5q10 0 31.5 -1.5t48.5 -4.5l-12 -129h-15q-145 0 -196 -36t-66 -191l-22 -238h258l-11 -133h-258z
" />
    <glyph glyph-name="circumflex" unicode="&#x2c6;" horiz-adv-x="1024" 
d="M236 1247l200 350h152l200 -350h-92l-184 264l-184 -264h-92z" />
    <glyph glyph-name="caron" unicode="&#x2c7;" horiz-adv-x="1024" 
d="M236 1597h92l184 -262l184 262h92l-200 -348h-152z" />
    <glyph glyph-name="breve" unicode="&#x2d8;" horiz-adv-x="1024" 
d="M238 1554h79q6 -75 53 -110t142 -35q96 0 141 34.5t52 110.5h81q-9 -136 -74.5 -199t-199.5 -63q-133 0 -199 63.5t-75 198.5z" />
    <glyph glyph-name="dotaccent" unicode="&#x2d9;" horiz-adv-x="1024" 
d="M436 1298v175h152v-175h-152z" />
    <glyph glyph-name="ring" unicode="&#x2da;" horiz-adv-x="1024" 
d="M362 1466q0 -63 43.5 -106t106.5 -43q62 0 107 43.5t45 105.5q0 63 -45 107.5t-107 44.5q-63 0 -106.5 -44t-43.5 -108zM270 1468q0 101 70.5 171.5t171.5 70.5q100 0 172 -71t72 -171q0 -99 -72 -171t-172 -72t-171 71.5t-71 171.5z" />
    <glyph glyph-name="ogonek" unicode="&#x2db;" horiz-adv-x="1024" 
d="M612 0q-72 -63 -108.5 -122.5t-36.5 -113.5q0 -46 25.5 -66t85.5 -20h75v-104h-73q-109 0 -160 39.5t-51 122.5q0 60 46.5 127t137.5 137h59z" />
    <glyph glyph-name="tilde" unicode="&#x2dc;" horiz-adv-x="1024" 
d="M801 1497q-26 -90 -74.5 -136t-116.5 -46q-14 0 -30 2.5t-35 7.5l-97 31q-15 4 -27.5 6t-25.5 2q-29 0 -53 -18.5t-39 -53.5h-80q22 89 72 136t123 47q16 0 29 -2.5t24 -6.5l96 -30q13 -5 28 -8t28 -3q33 0 56 17.5t40 54.5h82z" />
    <glyph glyph-name="hungarumlaut" unicode="&#x2dd;" horiz-adv-x="1024" 
d="M571 1247l168 348h133l-227 -348h-74zM336 1247l149 348h133l-208 -348h-74z" />
    <glyph glyph-name="Omega" unicode="&#x3a9;" horiz-adv-x="1579" 
d="M1462 139v-139h-581v127q207 124 313 293.5t106 374.5q0 260 -141.5 420.5t-367.5 160.5q-228 0 -370 -160t-142 -419q0 -207 106.5 -377.5t312.5 -292.5v-127h-581v139h344q-173 133 -256.5 291.5t-83.5 353.5q0 320 188.5 524.5t481.5 204.5q291 0 480 -203.5
t189 -523.5q0 -196 -83.5 -354t-258.5 -293h344z" />
    <glyph glyph-name="pi" unicode="&#x3c0;" horiz-adv-x="1171" 
d="M1120 944h-182l-115 -541q-15 -69 -22.5 -117t-7.5 -71q0 -58 25 -82t85 -24q29 0 51 2.5t41 6.5l-26 -118q-28 -8 -53.5 -12t-47.5 -4q-101 0 -157 53t-56 149q0 46 11 118t45 233l86 407h-365l-199 -944h-139l199 944h-39q-55 0 -85.5 -31.5t-41.5 -99.5h-131
q25 143 88 197.5t215 54.5h848z" />
    <glyph glyph-name="endash" unicode="&#x2013;" horiz-adv-x="1024" 
d="M1024 604v-112h-1024v112h1024z" />
    <glyph glyph-name="emdash" unicode="&#x2014;" horiz-adv-x="2048" 
d="M2048 604v-112h-2048v112h2048z" />
    <glyph glyph-name="quoteleft" unicode="&#x2018;" horiz-adv-x="397" 
d="M375 1028h-144l-153 428h141z" />
    <glyph glyph-name="quoteright" unicode="&#x2019;" horiz-adv-x="397" 
d="M166 1028h-141l153 428h144z" />
    <glyph glyph-name="quotesinglbase" unicode="&#x201a;" horiz-adv-x="397" 
d="M166 -162h-141l153 428h144z" />
    <glyph glyph-name="quotedblleft" unicode="&#x201c;" horiz-adv-x="692" 
d="M526 1028l-155 428h143l154 -428h-142zM231 1028l-153 428h141l156 -428h-144z" />
    <glyph glyph-name="quotedblright" unicode="&#x201d;" horiz-adv-x="692" 
d="M461 1028h-144l156 428h141zM166 1028h-141l153 428h144z" />
    <glyph glyph-name="quotedblbase" unicode="&#x201e;" horiz-adv-x="692" 
d="M461 -162h-144l156 428h141zM166 -162h-141l153 428h144z" />
    <glyph glyph-name="dagger" unicode="&#x2020;" 
d="M512 -217v1032h-270v-123h-115v373h115v-127h270v405h-135v113h409v-113h-137v-405h266v127h115v-373h-115v123h-266v-1032h-137z" />
    <glyph glyph-name="daggerdbl" unicode="&#x2021;" 
d="M649 -104h137v-113h-409v113h135v297h-270v-125h-115v374h115v-127h270v590h-270v-125h-115v375h115v-127h270v315h-135v113h409v-113h-137v-315h266v127h115v-375h-115v125h-266v-590h266v127h115v-374h-115v125h-266v-297z" />
    <glyph glyph-name="bullet" unicode="&#x2022;" horiz-adv-x="1208" 
d="M307 762q0 123 87 209t210 86q122 0 208.5 -86.5t86.5 -208.5t-87.5 -209.5t-209.5 -87.5q-123 0 -209 87t-86 210z" />
    <glyph glyph-name="ellipsis" unicode="&#x2026;" horiz-adv-x="2048" 
d="M413 0h-143v266h143v-266zM1095 0h-143v266h143v-266zM1779 0h-143v266h143v-266z" />
    <glyph glyph-name="perthousand" unicode="&#x2030;" horiz-adv-x="2693" 
d="M2015 328q0 -94 66 -160t162 -66q94 0 160.5 65.5t66.5 160.5q0 93 -67 160t-160 67q-95 0 -161.5 -66.5t-66.5 -160.5zM1888 330q0 149 104.5 253.5t254.5 104.5q149 0 253.5 -104.5t104.5 -253.5q0 -151 -104 -255t-254 -104q-151 0 -255 104t-104 255zM90 1126
q0 150 105 254.5t256 104.5q149 0 253.5 -105t104.5 -254t-104.5 -253.5t-253.5 -104.5q-151 0 -256 104t-105 254zM219 1124q0 -95 65.5 -161t159.5 -66q95 0 161.5 66.5t66.5 160.5t-66.5 160t-161.5 66q-94 0 -159.5 -65.5t-65.5 -160.5zM1231 1485h115l-777 -1514h-116z
M1116 330q0 -96 66 -162t161 -66t161.5 66.5t66.5 161.5q0 94 -66 159.5t-162 65.5q-95 0 -161 -65.5t-66 -159.5zM987 330q0 149 104.5 253.5t254.5 104.5q149 0 253.5 -104.5t104.5 -253.5q0 -151 -104 -255t-254 -104q-151 0 -255 104t-104 255z" />
    <glyph glyph-name="guilsinglleft" unicode="&#x2039;" horiz-adv-x="569" 
d="M317 164l-200 381l227 383l109 -70l-191 -317l164 -318z" />
    <glyph glyph-name="guilsinglright" unicode="&#x203a;" horiz-adv-x="569" 
d="M252 164l-109 59l164 318l-192 317l108 70l230 -383z" />
    <glyph glyph-name="franc" unicode="&#x20a3;" horiz-adv-x="2011" 
d="M403 133h164v-133h-471v133h164v1194h-164v129h1002v-366h-133v223h-564v-510h570v-144h-568v-526zM1409 127v848h-162v125h301v-185q52 104 148 152.5t251 50.5v-350h-131v186q-137 -15 -203.5 -132t-66.5 -343v-352h166v-127h-465v127h162z" />
    <glyph glyph-name="trademark" unicode="&#x2122;" horiz-adv-x="1706" 
d="M938 1454l166 -422l156 422h116v-530h-71v467l-177 -467h-49l-186 467v-467h-72v530h117zM694 1454v-57h-172v-473h-82v473h-176v57h430z" />
    <glyph glyph-name="partialdiff" unicode="&#x2202;" horiz-adv-x="1034" 
d="M752 592q12 83 18 160t6 149q0 158 -40 242t-115 84q-50 0 -108 -68.5t-103 -68.5q-31 0 -52.5 20t-21.5 47q0 62 63.5 107t155.5 45q165 0 264 -150.5t99 -406.5q0 -334 -136 -556.5t-333 -222.5q-143 0 -233.5 107t-90.5 278q0 179 109 304.5t262 125.5q98 0 160.5 -48
t95.5 -148zM711 463q0 128 -45 193t-134 65q-113 0 -186.5 -124.5t-73.5 -322.5q0 -126 44.5 -188.5t134.5 -62.5q112 0 186 125.5t74 314.5z" />
    <glyph glyph-name="Delta" unicode="&#x2206;" horiz-adv-x="1346" 
d="M1139 139l-467 1186l-465 -1186h932zM766 1473l590 -1473h-1366l590 1473h186z" />
    <glyph glyph-name="product" unicode="&#x220f;" horiz-adv-x="1509" 
d="M160 1473h1188v-1866h-168v1718h-852v-1718h-168v1866z" />
    <glyph glyph-name="summation" unicode="&#x2211;" horiz-adv-x="1317" 
d="M49 1473h1223v-144h-1014l705 -766l-740 -813h1057v-143h-1266v133l744 821l-709 772v140z" />
    <glyph glyph-name="minus" unicode="&#x2212;" horiz-adv-x="1706" 
d="M1452 659v-98h-1198v98h1198z" />
    <glyph glyph-name="fraction" unicode="&#x2215;" horiz-adv-x="342" 
d="M563 1485h119l-903 -1514h-121z" />
    <glyph glyph-name="periodcentered" unicode="&#x2219;" horiz-adv-x="578" 
d="M186 729q0 42 30.5 72t72.5 30q41 0 71.5 -30t30.5 -72q0 -43 -29.5 -72.5t-72.5 -29.5t-73 29.5t-30 72.5z" />
    <glyph glyph-name="radical" unicode="&#x221a;" horiz-adv-x="1276" 
d="M1276 1636v-71h-125l-594 -1606h-41l-328 899l-114 -39l-19 58l246 86l272 -746l525 1419h178z" />
    <glyph glyph-name="infinity" unicode="&#x221e;" horiz-adv-x="1706" 
d="M897 559q52 -100 122 -149.5t159 -49.5q106 0 173.5 75t67.5 192q0 113 -62.5 187.5t-156.5 74.5q-86 0 -155 -74t-148 -256zM811 668q-52 99 -121.5 147.5t-159.5 48.5q-106 0 -173.5 -74.5t-67.5 -189.5q0 -112 63 -187t156 -75q87 0 156.5 75t146.5 255zM838 721
q72 144 149 206t182 62q124 0 215 -107.5t91 -265.5q0 -169 -81.5 -273.5t-211.5 -104.5q-95 0 -168 60.5t-146 203.5q-71 -139 -148 -201.5t-173 -62.5q-132 0 -223 106.5t-91 267.5q0 169 81.5 273t211.5 104q97 0 171.5 -64t140.5 -204z" />
    <glyph glyph-name="integral" unicode="&#x222b;" horiz-adv-x="985" 
d="M293 -272q104 0 117 713q2 127 4 196q11 486 98 698.5t268 212.5q70 0 114 -37t44 -96q0 -48 -28.5 -76t-78.5 -28q-78 0 -103 69.5t-34 69.5q-105 0 -116 -623q-4 -185 -7 -289q-15 -497 -101 -703t-267 -206q-69 0 -113.5 36t-44.5 91q0 51 31 81t82 30
q36 0 61.5 -16.5t40.5 -51.5q4 -9 7 -33q4 -38 26 -38z" />
    <glyph glyph-name="approxequal" unicode="&#x2248;" horiz-adv-x="1706" 
d="M1530 469q-106 -74 -201 -109.5t-186 -35.5q-101 0 -291 69.5t-287 69.5q-82 0 -171 -36.5t-216 -123.5v111q107 74 202 109.5t185 35.5q109 0 298.5 -68.5t279.5 -68.5q86 0 175 35.5t212 122.5v-111zM1530 807q-104 -74 -199 -109.5t-188 -35.5q-103 0 -292 69.5
t-286 69.5q-82 0 -171 -36.5t-216 -123.5v113q105 73 201 109t186 36q109 0 298.5 -69.5t279.5 -69.5q84 0 171 34.5t216 123.5v-111z" />
    <glyph glyph-name="notequal" unicode="&#x2260;" horiz-adv-x="1706" 
d="M1288 1110l-205 -264h369v-96h-432l-215 -277h647v-98h-709l-254 -324l-73 60l205 264h-367v98h428l215 277h-643v96h707l253 323z" />
    <glyph glyph-name="lessequal" unicode="&#x2264;" horiz-adv-x="1706" 
d="M1442 139v-98h-1178v98h1178zM1442 1075l-1010 -338l1010 -336v-106l-1178 401v84l1178 402v-107z" />
    <glyph glyph-name="greaterequal" unicode="&#x2265;" horiz-adv-x="1706" 
d="M1442 139v-98h-1178v98h1178zM1442 780v-84l-1178 -401v106l1010 336l-1010 338v107z" />
    <glyph glyph-name="lozenge" unicode="&#x25ca;" horiz-adv-x="1012" 
d="M506 1409l-385 -817l385 -825l385 825zM506 1653l500 -1061l-500 -1069l-500 1069z" />
    <glyph glyph-name="apple" unicode="&#xf000;" horiz-adv-x="1618" 
d="M836 1216q-1 6 -1.5 14t-0.5 23q0 124 95 229.5t236 131.5q1 -10 1.5 -23t0.5 -39q0 -131 -103.5 -234.5t-203.5 -103.5h-8q-3 0 -7.5 1t-8.5 1zM1505 403q-114 -247 -205 -342.5t-204 -95.5q-50 0 -131.5 33t-122.5 33q-45 0 -131 -33t-127 -33q-64 0 -128.5 44
t-129.5 132q-102 140 -157.5 295.5t-55.5 300.5q0 219 125 356.5t323 137.5q68 0 155 -34t124 -34q34 0 121.5 34t152.5 34q111 0 199 -39.5t160 -122.5q-102 -65 -151.5 -145.5t-49.5 -182.5q0 -113 60 -200t173 -138z" />
    <glyph glyph-name="fi" unicode="&#xf001;" horiz-adv-x="1274" 
d="M907 1210v246h137v-246h-137zM907 127v848h-164v125h301v-973h166v-127h-467v127h164zM246 127v848h-148v125h148v39q0 173 80 259.5t241 86.5h11l-1 -133q-103 -2 -149.5 -52t-46.5 -161q0 -6 1 -19t1 -20h195v-125h-193v-848h178v-127h-479v127h162z" />
    <glyph glyph-name="fl" unicode="&#xf002;" horiz-adv-x="1260" 
d="M893 127v1202h-164v127h301v-1329h166v-127h-467v127h164zM246 127v848h-148v125h148v39q0 173 80 259.5t241 86.5h11l-1 -133q-103 -2 -149.5 -52t-46.5 -161q0 -6 1 -19t1 -20h195v-125h-193v-848h178v-127h-479v127h162z" />
    </font>
</defs>
</svg>
